{
  "header": {
    "PPQ": 384,
    "timeSignature": [
      4,
      4
    ],
    "bpm": 148.000148000148,
    "name": "Jeffrey M Colletti"
  },
  "startTime": 0,
  "duration": 38.91465703124998,
  "tracks": [
    {
      "startTime": 0,
      "duration": 0,
      "length": 0,
      "id": 0
    },
    {
      "startTime": 0,
      "duration": 38.85131249999999,
      "length": 128,
      "id": 1,
      "name": "Melody",
      "instrumentNumber": 71,
      "instrument": "clarinet",
      "instrumentFamily": "reed",
      "channelNumber": 0,
      "isPercussion": false,
      "notes": [
        {
          "name": "A#4",
          "midi": 70,
          "time": 0,
          "velocity": 0.4881889763779528,
          "duration": 0.81081
        },
        {
          "name": "A#4",
          "midi": 70,
          "time": 1.08108,
          "velocity": 0.4881889763779528,
          "duration": 0.08868234374999995
        },
        {
          "name": "A#4",
          "midi": 70,
          "time": 1.216215,
          "velocity": 0.4881889763779528,
          "duration": 0.08868234374999995
        },
        {
          "name": "A#4",
          "midi": 70,
          "time": 1.35135,
          "velocity": 0.4881889763779528,
          "duration": 0.08868234374999995
        },
        {
          "name": "A#4",
          "midi": 70,
          "time": 1.486485,
          "velocity": 0.4881889763779528,
          "duration": 0.08868234374999995
        },
        {
          "name": "A#4",
          "midi": 70,
          "time": 1.62162,
          "velocity": 0.4881889763779528,
          "duration": 0.13091203125000006
        },
        {
          "name": "G#4",
          "midi": 68,
          "time": 1.89189,
          "velocity": 0.4881889763779528,
          "duration": 0.08868234374999995
        },
        {
          "name": "A#4",
          "midi": 70,
          "time": 2.027025,
          "velocity": 0.4881889763779528,
          "duration": 0.54054
        },
        {
          "name": "A#4",
          "midi": 70,
          "time": 2.7027,
          "velocity": 0.4881889763779528,
          "duration": 0.08868234374999995
        },
        {
          "name": "A#4",
          "midi": 70,
          "time": 2.837835,
          "velocity": 0.4881889763779528,
          "duration": 0.08868234374999995
        },
        {
          "name": "A#4",
          "midi": 70,
          "time": 2.97297,
          "velocity": 0.4881889763779528,
          "duration": 0.08868234374999995
        },
        {
          "name": "A#4",
          "midi": 70,
          "time": 3.108105,
          "velocity": 0.4881889763779528,
          "duration": 0.08868234374999995
        },
        {
          "name": "A#4",
          "midi": 70,
          "time": 3.24324,
          "velocity": 0.4881889763779528,
          "duration": 0.13091203124999984
        },
        {
          "name": "G#4",
          "midi": 68,
          "time": 3.51351,
          "velocity": 0.4881889763779528,
          "duration": 0.08868234374999995
        },
        {
          "name": "A#4",
          "midi": 70,
          "time": 3.648645,
          "velocity": 0.4881889763779528,
          "duration": 0.6038845312500003
        },
        {
          "name": "A#4",
          "midi": 70,
          "time": 4.32432,
          "velocity": 0.4881889763779528,
          "duration": 0.08868234375000039
        },
        {
          "name": "A#4",
          "midi": 70,
          "time": 4.459455,
          "velocity": 0.4881889763779528,
          "duration": 0.08868234375000039
        },
        {
          "name": "A#4",
          "midi": 70,
          "time": 4.59459,
          "velocity": 0.4881889763779528,
          "duration": 0.08868234375000039
        },
        {
          "name": "A#4",
          "midi": 70,
          "time": 4.729725,
          "velocity": 0.4881889763779528,
          "duration": 0.08868234375000039
        },
        {
          "name": "A#4",
          "midi": 70,
          "time": 4.86486,
          "velocity": 0.4881889763779528,
          "duration": 0.135135
        },
        {
          "name": "F4",
          "midi": 65,
          "time": 5.0675625,
          "velocity": 0.4881889763779528,
          "duration": 0.0675675
        },
        {
          "name": "F4",
          "midi": 65,
          "time": 5.16891375,
          "velocity": 0.4881889763779528,
          "duration": 0.0675675
        },
        {
          "name": "F4",
          "midi": 65,
          "time": 5.270265,
          "velocity": 0.4881889763779528,
          "duration": 0.135135
        },
        {
          "name": "F4",
          "midi": 65,
          "time": 5.4729675,
          "velocity": 0.4881889763779528,
          "duration": 0.0675675
        },
        {
          "name": "F4",
          "midi": 65,
          "time": 5.57431875,
          "velocity": 0.4881889763779528,
          "duration": 0.0675675
        },
        {
          "name": "F4",
          "midi": 65,
          "time": 5.67567,
          "velocity": 0.4881889763779528,
          "duration": 0.135135
        },
        {
          "name": "F4",
          "midi": 65,
          "time": 5.8783725,
          "velocity": 0.4881889763779528,
          "duration": 0.0675675
        },
        {
          "name": "F4",
          "midi": 65,
          "time": 5.97972375,
          "velocity": 0.4881889763779528,
          "duration": 0.0675675
        },
        {
          "name": "F4",
          "midi": 65,
          "time": 6.081075,
          "velocity": 0.4881889763779528,
          "duration": 0.135135
        },
        {
          "name": "F4",
          "midi": 65,
          "time": 6.2837775,
          "velocity": 0.4881889763779528,
          "duration": 0.135135
        },
        {
          "name": "A#4",
          "midi": 70,
          "time": 6.48648,
          "velocity": 0.4881889763779528,
          "duration": 0.27027
        },
        {
          "name": "F4",
          "midi": 65,
          "time": 6.891885,
          "velocity": 0.4881889763779528,
          "duration": 0.6038845312500003
        },
        {
          "name": "A#4",
          "midi": 70,
          "time": 7.601343750000001,
          "velocity": 0.4881889763779528,
          "duration": 0.09712828124999984
        },
        {
          "name": "A#4",
          "midi": 70,
          "time": 7.702695,
          "velocity": 0.4881889763779528,
          "duration": 0.09712828124999984
        },
        {
          "name": "C5",
          "midi": 72,
          "time": 7.80404625,
          "velocity": 0.4881889763779528,
          "duration": 0.09712828124999984
        },
        {
          "name": "D5",
          "midi": 74,
          "time": 7.905397499999999,
          "velocity": 0.4881889763779528,
          "duration": 0.09712828125000073
        },
        {
          "name": "D#5",
          "midi": 75,
          "time": 8.00674875,
          "velocity": 0.4881889763779528,
          "duration": 0.09712828125000073
        },
        {
          "name": "F5",
          "midi": 77,
          "time": 8.1081,
          "velocity": 0.4881889763779528,
          "duration": 0.8065870312500003
        },
        {
          "name": "F5",
          "midi": 77,
          "time": 9.121612500000001,
          "velocity": 0.4881889763779528,
          "duration": 0.135135
        },
        {
          "name": "F5",
          "midi": 77,
          "time": 9.324315000000002,
          "velocity": 0.4881889763779528,
          "duration": 0.13091203125000028
        },
        {
          "name": "F#5",
          "midi": 78,
          "time": 9.459450000000002,
          "velocity": 0.4881889763779528,
          "duration": 0.13091203125000028
        },
        {
          "name": "G#5",
          "midi": 80,
          "time": 9.594585000000002,
          "velocity": 0.4881889763779528,
          "duration": 0.13091203125000028
        },
        {
          "name": "A#5",
          "midi": 82,
          "time": 9.729720000000002,
          "velocity": 0.4881889763779528,
          "duration": 0.9417220312500003
        },
        {
          "name": "A#5",
          "midi": 82,
          "time": 10.675665000000002,
          "velocity": 0.4881889763779528,
          "duration": 0.13091203125000028
        },
        {
          "name": "A#5",
          "midi": 82,
          "time": 10.810800000000002,
          "velocity": 0.4881889763779528,
          "duration": 0.13091203125000028
        },
        {
          "name": "A#5",
          "midi": 82,
          "time": 10.945935000000002,
          "velocity": 0.4881889763779528,
          "duration": 0.13091203125000028
        },
        {
          "name": "G#5",
          "midi": 80,
          "time": 11.081070000000002,
          "velocity": 0.4881889763779528,
          "duration": 0.13091203125000028
        },
        {
          "name": "F#5",
          "midi": 78,
          "time": 11.216205000000002,
          "velocity": 0.4881889763779528,
          "duration": 0.13091203125000028
        },
        {
          "name": "G#5",
          "midi": 80,
          "time": 11.351340000000002,
          "velocity": 0.4881889763779528,
          "duration": 0.13091203125000028
        },
        {
          "name": "F#5",
          "midi": 78,
          "time": 11.621610000000002,
          "velocity": 0.4881889763779528,
          "duration": 0.13091203125000028
        },
        {
          "name": "F5",
          "midi": 77,
          "time": 11.756745000000002,
          "velocity": 0.4881889763779528,
          "duration": 0.8065870312500003
        },
        {
          "name": "F5",
          "midi": 77,
          "time": 12.567555000000002,
          "velocity": 0.4881889763779528,
          "duration": 0.4011820312500003
        },
        {
          "name": "D#5",
          "midi": 75,
          "time": 12.972960000000002,
          "velocity": 0.4881889763779528,
          "duration": 0.1984795312499994
        },
        {
          "name": "D#5",
          "midi": 75,
          "time": 13.175662500000001,
          "velocity": 0.4881889763779528,
          "duration": 0.09712828125000073
        },
        {
          "name": "F5",
          "midi": 77,
          "time": 13.277013750000002,
          "velocity": 0.4881889763779528,
          "duration": 0.09712828125000073
        },
        {
          "name": "F#5",
          "midi": 78,
          "time": 13.378365000000002,
          "velocity": 0.4881889763779528,
          "duration": 0.8065870312500003
        },
        {
          "name": "F5",
          "midi": 77,
          "time": 14.189175000000002,
          "velocity": 0.4881889763779528,
          "duration": 0.1984795312499994
        },
        {
          "name": "D#5",
          "midi": 75,
          "time": 14.391877500000001,
          "velocity": 0.4881889763779528,
          "duration": 0.1984795312499994
        },
        {
          "name": "C#5",
          "midi": 73,
          "time": 14.59458,
          "velocity": 0.4881889763779528,
          "duration": 0.1984795312499994
        },
        {
          "name": "C#5",
          "midi": 73,
          "time": 14.7972825,
          "velocity": 0.4881889763779528,
          "duration": 0.09712828125000073
        },
        {
          "name": "D#5",
          "midi": 75,
          "time": 14.89863375,
          "velocity": 0.4881889763779528,
          "duration": 0.09712828125000073
        },
        {
          "name": "F5",
          "midi": 77,
          "time": 14.999985,
          "velocity": 0.4881889763779528,
          "duration": 0.8065870312500003
        },
        {
          "name": "D#5",
          "midi": 75,
          "time": 15.810795,
          "velocity": 0.4881889763779528,
          "duration": 0.1984795312499994
        },
        {
          "name": "C#5",
          "midi": 73,
          "time": 16.0134975,
          "velocity": 0.4881889763779528,
          "duration": 0.19847953125000117
        },
        {
          "name": "C5",
          "midi": 72,
          "time": 16.2162,
          "velocity": 0.4881889763779528,
          "duration": 0.19847953125000117
        },
        {
          "name": "C5",
          "midi": 72,
          "time": 16.4189025,
          "velocity": 0.4881889763779528,
          "duration": 0.09712828125000073
        },
        {
          "name": "D5",
          "midi": 74,
          "time": 16.520253750000002,
          "velocity": 0.4881889763779528,
          "duration": 0.09712828125000073
        },
        {
          "name": "E5",
          "midi": 76,
          "time": 16.621605000000002,
          "velocity": 0.4881889763779528,
          "duration": 0.8065870312500003
        },
        {
          "name": "G5",
          "midi": 79,
          "time": 17.432415000000002,
          "velocity": 0.4881889763779528,
          "duration": 0.4011820312499985
        },
        {
          "name": "F5",
          "midi": 77,
          "time": 17.83782,
          "velocity": 0.4881889763779528,
          "duration": 0.13513499999999823
        },
        {
          "name": "F4",
          "midi": 65,
          "time": 18.040522499999998,
          "velocity": 0.4881889763779528,
          "duration": 0.06756749999999911
        },
        {
          "name": "F4",
          "midi": 65,
          "time": 18.14187375,
          "velocity": 0.4881889763779528,
          "duration": 0.06756749999999911
        },
        {
          "name": "F4",
          "midi": 65,
          "time": 18.243225,
          "velocity": 0.4881889763779528,
          "duration": 0.13513500000000178
        },
        {
          "name": "F4",
          "midi": 65,
          "time": 18.4459275,
          "velocity": 0.4881889763779528,
          "duration": 0.06756749999999911
        },
        {
          "name": "F4",
          "midi": 65,
          "time": 18.54727875,
          "velocity": 0.4881889763779528,
          "duration": 0.06756749999999911
        },
        {
          "name": "F4",
          "midi": 65,
          "time": 18.64863,
          "velocity": 0.4881889763779528,
          "duration": 0.13513500000000178
        },
        {
          "name": "F4",
          "midi": 65,
          "time": 18.8513325,
          "velocity": 0.4881889763779528,
          "duration": 0.06756749999999911
        },
        {
          "name": "F4",
          "midi": 65,
          "time": 18.952683750000002,
          "velocity": 0.4881889763779528,
          "duration": 0.06756749999999911
        },
        {
          "name": "F4",
          "midi": 65,
          "time": 19.054035000000002,
          "velocity": 0.4881889763779528,
          "duration": 0.13513500000000178
        },
        {
          "name": "F4",
          "midi": 65,
          "time": 19.256737500000003,
          "velocity": 0.4881889763779528,
          "duration": 0.13513500000000178
        },
        {
          "name": "A#4",
          "midi": 70,
          "time": 19.459440000000004,
          "velocity": 0.4881889763779528,
          "duration": 0.27027
        },
        {
          "name": "F4",
          "midi": 65,
          "time": 19.864845000000003,
          "velocity": 0.4881889763779528,
          "duration": 0.6038845312499994
        },
        {
          "name": "A#4",
          "midi": 70,
          "time": 20.574303750000002,
          "velocity": 0.4881889763779528,
          "duration": 0.09712828125000073
        },
        {
          "name": "A#4",
          "midi": 70,
          "time": 20.675655000000003,
          "velocity": 0.4881889763779528,
          "duration": 0.09712828125000073
        },
        {
          "name": "C5",
          "midi": 72,
          "time": 20.777006250000003,
          "velocity": 0.4881889763779528,
          "duration": 0.09712828125000073
        },
        {
          "name": "D5",
          "midi": 74,
          "time": 20.878357500000003,
          "velocity": 0.4881889763779528,
          "duration": 0.09712828125000073
        },
        {
          "name": "D#5",
          "midi": 75,
          "time": 20.979708750000004,
          "velocity": 0.4881889763779528,
          "duration": 0.09712828125000073
        },
        {
          "name": "F5",
          "midi": 77,
          "time": 21.081060000000004,
          "velocity": 0.4881889763779528,
          "duration": 0.8065870312500003
        },
        {
          "name": "F5",
          "midi": 77,
          "time": 22.094572500000005,
          "velocity": 0.4881889763779528,
          "duration": 0.13513499999999823
        },
        {
          "name": "F5",
          "midi": 77,
          "time": 22.297275000000003,
          "velocity": 0.4881889763779528,
          "duration": 0.1309120312499985
        },
        {
          "name": "F#5",
          "midi": 78,
          "time": 22.43241,
          "velocity": 0.4881889763779528,
          "duration": 0.1309120312499985
        },
        {
          "name": "G#5",
          "midi": 80,
          "time": 22.567545,
          "velocity": 0.4881889763779528,
          "duration": 0.1309120312499985
        },
        {
          "name": "A#5",
          "midi": 82,
          "time": 22.702679999999997,
          "velocity": 0.4881889763779528,
          "duration": 1.2119920312499985
        },
        {
          "name": "C#6",
          "midi": 85,
          "time": 23.918894999999996,
          "velocity": 0.4881889763779528,
          "duration": 0.4011820312499985
        },
        {
          "name": "C6",
          "midi": 84,
          "time": 24.324299999999994,
          "velocity": 0.4881889763779528,
          "duration": 0.2027025000000009
        },
        {
          "name": "A5",
          "midi": 81,
          "time": 24.729704999999996,
          "velocity": 0.4881889763779528,
          "duration": 0.6756749999999982
        },
        {
          "name": "F5",
          "midi": 77,
          "time": 25.540514999999992,
          "velocity": 0.4881889763779528,
          "duration": 0.4011820312499985
        },
        {
          "name": "F#5",
          "midi": 78,
          "time": 25.94591999999999,
          "velocity": 0.4881889763779528,
          "duration": 0.8783774999999991
        },
        {
          "name": "A#5",
          "midi": 82,
          "time": 27.16213499999999,
          "velocity": 0.4881889763779528,
          "duration": 0.4011820312499985
        },
        {
          "name": "A5",
          "midi": 81,
          "time": 27.567539999999987,
          "velocity": 0.4881889763779528,
          "duration": 0.2027025000000009
        },
        {
          "name": "F5",
          "midi": 77,
          "time": 27.97294499999999,
          "velocity": 0.4881889763779528,
          "duration": 0.6756749999999982
        },
        {
          "name": "F5",
          "midi": 77,
          "time": 28.783754999999985,
          "velocity": 0.4881889763779528,
          "duration": 0.4011820312499985
        },
        {
          "name": "F#5",
          "midi": 78,
          "time": 29.189159999999983,
          "velocity": 0.4881889763779528,
          "duration": 0.8065870312500003
        },
        {
          "name": "A#5",
          "midi": 82,
          "time": 30.405374999999985,
          "velocity": 0.4881889763779528,
          "duration": 0.4011820312499985
        },
        {
          "name": "A5",
          "midi": 81,
          "time": 30.810779999999983,
          "velocity": 0.4881889763779528,
          "duration": 0.19847953125000117
        },
        {
          "name": "F5",
          "midi": 77,
          "time": 31.216184999999985,
          "velocity": 0.4881889763779528,
          "duration": 0.8065870312500003
        },
        {
          "name": "D5",
          "midi": 74,
          "time": 32.026994999999985,
          "velocity": 0.4881889763779528,
          "duration": 0.40118203125000207
        },
        {
          "name": "D#5",
          "midi": 75,
          "time": 32.43239999999999,
          "velocity": 0.4881889763779528,
          "duration": 0.8065870312499968
        },
        {
          "name": "F#5",
          "midi": 78,
          "time": 33.648614999999985,
          "velocity": 0.4881889763779528,
          "duration": 0.40118203125000207
        },
        {
          "name": "F5",
          "midi": 77,
          "time": 34.05401999999999,
          "velocity": 0.4881889763779528,
          "duration": 0.19847953125000117
        },
        {
          "name": "C#5",
          "midi": 73,
          "time": 34.45942499999999,
          "velocity": 0.4881889763779528,
          "duration": 0.8065870312499968
        },
        {
          "name": "A#4",
          "midi": 70,
          "time": 35.270234999999985,
          "velocity": 0.4881889763779528,
          "duration": 0.40118203125000207
        },
        {
          "name": "C5",
          "midi": 72,
          "time": 35.67563999999999,
          "velocity": 0.4881889763779528,
          "duration": 0.19847953125000117
        },
        {
          "name": "C5",
          "midi": 72,
          "time": 35.87834249999999,
          "velocity": 0.4881889763779528,
          "duration": 0.09712828125000073
        },
        {
          "name": "D5",
          "midi": 74,
          "time": 35.97969374999999,
          "velocity": 0.4881889763779528,
          "duration": 0.09712828125000073
        },
        {
          "name": "E5",
          "midi": 76,
          "time": 36.08104499999999,
          "velocity": 0.4881889763779528,
          "duration": 0.8065870312499968
        },
        {
          "name": "G5",
          "midi": 79,
          "time": 36.891854999999985,
          "velocity": 0.4881889763779528,
          "duration": 0.40118203125000207
        },
        {
          "name": "F5",
          "midi": 77,
          "time": 37.29725999999999,
          "velocity": 0.4881889763779528,
          "duration": 0.13513499999999823
        },
        {
          "name": "F4",
          "midi": 65,
          "time": 37.49996249999999,
          "velocity": 0.4881889763779528,
          "duration": 0.06756750000000267
        },
        {
          "name": "F4",
          "midi": 65,
          "time": 37.60131374999999,
          "velocity": 0.4881889763779528,
          "duration": 0.06756750000000267
        },
        {
          "name": "F4",
          "midi": 65,
          "time": 37.70266499999999,
          "velocity": 0.4881889763779528,
          "duration": 0.13513499999999823
        },
        {
          "name": "F4",
          "midi": 65,
          "time": 37.90536749999999,
          "velocity": 0.4881889763779528,
          "duration": 0.06756750000000267
        },
        {
          "name": "F4",
          "midi": 65,
          "time": 38.00671874999999,
          "velocity": 0.4881889763779528,
          "duration": 0.06756750000000267
        },
        {
          "name": "F4",
          "midi": 65,
          "time": 38.10806999999999,
          "velocity": 0.4881889763779528,
          "duration": 0.13513499999999823
        },
        {
          "name": "F4",
          "midi": 65,
          "time": 38.31077249999999,
          "velocity": 0.4881889763779528,
          "duration": 0.06756750000000267
        },
        {
          "name": "F4",
          "midi": 65,
          "time": 38.41212374999999,
          "velocity": 0.4881889763779528,
          "duration": 0.06756750000000267
        },
        {
          "name": "F4",
          "midi": 65,
          "time": 38.51347499999999,
          "velocity": 0.4881889763779528,
          "duration": 0.13513499999999823
        },
        {
          "name": "F4",
          "midi": 65,
          "time": 38.71617749999999,
          "velocity": 0.4881889763779528,
          "duration": 0.13513499999999823
        }
      ],
      "controlChanges": {
        "91": [
          {
            "number": 91,
            "time": 0,
            "value": 0
          }
        ]
      }
    },
    {
      "startTime": 0,
      "duration": 38.851312500000006,
      "length": 168,
      "id": 2,
      "name": "Harmony",
      "instrumentNumber": 71,
      "instrument": "clarinet",
      "instrumentFamily": "reed",
      "channelNumber": 1,
      "isPercussion": false,
      "notes": [
        {
          "name": "D4",
          "midi": 62,
          "time": 0,
          "velocity": 0.4645669291338583,
          "duration": 0.81081
        },
        {
          "name": "D4",
          "midi": 62,
          "time": 1.08108,
          "velocity": 0.4645669291338583,
          "duration": 0.08868234374999995
        },
        {
          "name": "D4",
          "midi": 62,
          "time": 1.216215,
          "velocity": 0.4645669291338583,
          "duration": 0.08868234374999995
        },
        {
          "name": "D4",
          "midi": 62,
          "time": 1.35135,
          "velocity": 0.4645669291338583,
          "duration": 0.08868234374999995
        },
        {
          "name": "D4",
          "midi": 62,
          "time": 1.486485,
          "velocity": 0.4645669291338583,
          "duration": 0.08868234374999995
        },
        {
          "name": "C4",
          "midi": 60,
          "time": 1.62162,
          "velocity": 0.4645669291338583,
          "duration": 0.13091203125000006
        },
        {
          "name": "C4",
          "midi": 60,
          "time": 1.89189,
          "velocity": 0.4645669291338583,
          "duration": 0.08868234374999995
        },
        {
          "name": "C4",
          "midi": 60,
          "time": 2.027025,
          "velocity": 0.4645669291338583,
          "duration": 0.54054
        },
        {
          "name": "C4",
          "midi": 60,
          "time": 2.837835,
          "velocity": 0.4645669291338583,
          "duration": 0.08868234374999995
        },
        {
          "name": "C4",
          "midi": 60,
          "time": 2.97297,
          "velocity": 0.4645669291338583,
          "duration": 0.08868234374999995
        },
        {
          "name": "C4",
          "midi": 60,
          "time": 3.108105,
          "velocity": 0.4645669291338583,
          "duration": 0.08868234374999995
        },
        {
          "name": "C#4",
          "midi": 61,
          "time": 3.24324,
          "velocity": 0.4645669291338583,
          "duration": 0.13091203124999984
        },
        {
          "name": "C#4",
          "midi": 61,
          "time": 3.51351,
          "velocity": 0.4645669291338583,
          "duration": 0.08868234374999995
        },
        {
          "name": "C#4",
          "midi": 61,
          "time": 3.648645,
          "velocity": 0.4645669291338583,
          "duration": 0.6038845312500003
        },
        {
          "name": "C#4",
          "midi": 61,
          "time": 4.32432,
          "velocity": 0.4645669291338583,
          "duration": 0.08868234375000039
        },
        {
          "name": "C#4",
          "midi": 61,
          "time": 4.459455,
          "velocity": 0.4645669291338583,
          "duration": 0.08868234375000039
        },
        {
          "name": "C#4",
          "midi": 61,
          "time": 4.59459,
          "velocity": 0.4645669291338583,
          "duration": 0.08868234375000039
        },
        {
          "name": "C#4",
          "midi": 61,
          "time": 4.729725,
          "velocity": 0.4645669291338583,
          "duration": 0.08868234375000039
        },
        {
          "name": "C#4",
          "midi": 61,
          "time": 4.86486,
          "velocity": 0.4645669291338583,
          "duration": 0.19847953125000029
        },
        {
          "name": "A3",
          "midi": 57,
          "time": 5.0675625,
          "velocity": 0.4645669291338583,
          "duration": 0.0675675
        },
        {
          "name": "A3",
          "midi": 57,
          "time": 5.16891375,
          "velocity": 0.4645669291338583,
          "duration": 0.0675675
        },
        {
          "name": "A3",
          "midi": 57,
          "time": 5.270265,
          "velocity": 0.4645669291338583,
          "duration": 0.135135
        },
        {
          "name": "A3",
          "midi": 57,
          "time": 5.4729675,
          "velocity": 0.4645669291338583,
          "duration": 0.0675675
        },
        {
          "name": "A3",
          "midi": 57,
          "time": 5.57431875,
          "velocity": 0.4645669291338583,
          "duration": 0.0675675
        },
        {
          "name": "A3",
          "midi": 57,
          "time": 5.67567,
          "velocity": 0.4645669291338583,
          "duration": 0.135135
        },
        {
          "name": "A3",
          "midi": 57,
          "time": 5.8783725,
          "velocity": 0.4645669291338583,
          "duration": 0.0675675
        },
        {
          "name": "A3",
          "midi": 57,
          "time": 5.97972375,
          "velocity": 0.4645669291338583,
          "duration": 0.0675675
        },
        {
          "name": "A3",
          "midi": 57,
          "time": 6.081075,
          "velocity": 0.4645669291338583,
          "duration": 0.135135
        },
        {
          "name": "A3",
          "midi": 57,
          "time": 6.2837775,
          "velocity": 0.4645669291338583,
          "duration": 0.135135
        },
        {
          "name": "D4",
          "midi": 62,
          "time": 6.48648,
          "velocity": 0.4645669291338583,
          "duration": 0.27027
        },
        {
          "name": "D4",
          "midi": 62,
          "time": 6.891885,
          "velocity": 0.4645669291338583,
          "duration": 0.13091203125000028
        },
        {
          "name": "D4",
          "midi": 62,
          "time": 7.02702,
          "velocity": 0.4645669291338583,
          "duration": 0.13091203125000028
        },
        {
          "name": "C4",
          "midi": 60,
          "time": 7.162155,
          "velocity": 0.4645669291338583,
          "duration": 0.13091203125000028
        },
        {
          "name": "D4",
          "midi": 62,
          "time": 7.29729,
          "velocity": 0.4645669291338583,
          "duration": 0.19847953125000029
        },
        {
          "name": "D4",
          "midi": 62,
          "time": 7.601343750000001,
          "velocity": 0.4645669291338583,
          "duration": 0.09712828124999984
        },
        {
          "name": "D4",
          "midi": 62,
          "time": 7.702695,
          "velocity": 0.4645669291338583,
          "duration": 0.09712828124999984
        },
        {
          "name": "D#4",
          "midi": 63,
          "time": 7.80404625,
          "velocity": 0.4645669291338583,
          "duration": 0.09712828124999984
        },
        {
          "name": "F4",
          "midi": 65,
          "time": 7.905397499999999,
          "velocity": 0.4645669291338583,
          "duration": 0.09712828125000073
        },
        {
          "name": "G4",
          "midi": 67,
          "time": 8.00674875,
          "velocity": 0.4645669291338583,
          "duration": 0.09712828125000073
        },
        {
          "name": "G#4",
          "midi": 68,
          "time": 8.1081,
          "velocity": 0.4645669291338583,
          "duration": 0.29983078124999984
        },
        {
          "name": "A#4",
          "midi": 70,
          "time": 8.41215375,
          "velocity": 0.4645669291338583,
          "duration": 0.09712828125000073
        },
        {
          "name": "A#4",
          "midi": 70,
          "time": 8.513505,
          "velocity": 0.4645669291338583,
          "duration": 0.09712828125000073
        },
        {
          "name": "C5",
          "midi": 72,
          "time": 8.61485625,
          "velocity": 0.4645669291338583,
          "duration": 0.09712828125000073
        },
        {
          "name": "D5",
          "midi": 74,
          "time": 8.716207500000001,
          "velocity": 0.4645669291338583,
          "duration": 0.09712828125000073
        },
        {
          "name": "D#5",
          "midi": 75,
          "time": 8.817558750000002,
          "velocity": 0.4645669291338583,
          "duration": 0.09712828125000073
        },
        {
          "name": "F5",
          "midi": 77,
          "time": 8.918910000000002,
          "velocity": 0.4645669291338583,
          "duration": 0.1984795312499994
        },
        {
          "name": "F5",
          "midi": 77,
          "time": 9.121612500000001,
          "velocity": 0.4645669291338583,
          "duration": 0.1984795312499994
        },
        {
          "name": "G#4",
          "midi": 68,
          "time": 9.324315,
          "velocity": 0.4645669291338583,
          "duration": 0.13091203125000028
        },
        {
          "name": "A#4",
          "midi": 70,
          "time": 9.45945,
          "velocity": 0.4645669291338583,
          "duration": 0.13091203125000028
        },
        {
          "name": "C5",
          "midi": 72,
          "time": 9.594585,
          "velocity": 0.4645669291338583,
          "duration": 0.13091203125000028
        },
        {
          "name": "C#5",
          "midi": 73,
          "time": 9.72972,
          "velocity": 0.4645669291338583,
          "duration": 0.29983078124999984
        },
        {
          "name": "F#4",
          "midi": 66,
          "time": 10.03377375,
          "velocity": 0.4645669291338583,
          "duration": 0.09712828125000073
        },
        {
          "name": "F#4",
          "midi": 66,
          "time": 10.135125,
          "velocity": 0.4645669291338583,
          "duration": 0.09712828125000073
        },
        {
          "name": "G#4",
          "midi": 68,
          "time": 10.23647625,
          "velocity": 0.4645669291338583,
          "duration": 0.09712828125000073
        },
        {
          "name": "A#4",
          "midi": 70,
          "time": 10.337827500000001,
          "velocity": 0.4645669291338583,
          "duration": 0.09712828125000073
        },
        {
          "name": "C5",
          "midi": 72,
          "time": 10.439178750000002,
          "velocity": 0.4645669291338583,
          "duration": 0.09712828125000073
        },
        {
          "name": "C#5",
          "midi": 73,
          "time": 10.540530000000002,
          "velocity": 0.4645669291338583,
          "duration": 0.1984795312499994
        },
        {
          "name": "C#5",
          "midi": 73,
          "time": 10.743232500000001,
          "velocity": 0.4645669291338583,
          "duration": 0.1984795312499994
        },
        {
          "name": "C#5",
          "midi": 73,
          "time": 10.945935,
          "velocity": 0.4645669291338583,
          "duration": 0.13091203125000028
        },
        {
          "name": "C5",
          "midi": 72,
          "time": 11.08107,
          "velocity": 0.4645669291338583,
          "duration": 0.13091203125000028
        },
        {
          "name": "A#4",
          "midi": 70,
          "time": 11.216205,
          "velocity": 0.4645669291338583,
          "duration": 0.13091203125000028
        },
        {
          "name": "C#5",
          "midi": 73,
          "time": 11.35134,
          "velocity": 0.4645669291338583,
          "duration": 0.13091203125000028
        },
        {
          "name": "G#4",
          "midi": 68,
          "time": 11.62161,
          "velocity": 0.4645669291338583,
          "duration": 0.13091203125000028
        },
        {
          "name": "G#4",
          "midi": 68,
          "time": 11.756745,
          "velocity": 0.4645669291338583,
          "duration": 0.13091203125000028
        },
        {
          "name": "G#4",
          "midi": 68,
          "time": 11.89188,
          "velocity": 0.4645669291338583,
          "duration": 0.13091203125000028
        },
        {
          "name": "F#4",
          "midi": 66,
          "time": 12.027015,
          "velocity": 0.4645669291338583,
          "duration": 0.13091203125000028
        },
        {
          "name": "G#4",
          "midi": 68,
          "time": 12.16215,
          "velocity": 0.4645669291338583,
          "duration": 0.13091203125000028
        },
        {
          "name": "G#4",
          "midi": 68,
          "time": 12.43242,
          "velocity": 0.4645669291338583,
          "duration": 0.13091203125000028
        },
        {
          "name": "G#4",
          "midi": 68,
          "time": 12.567555,
          "velocity": 0.4645669291338583,
          "duration": 0.13091203125000028
        },
        {
          "name": "F#4",
          "midi": 66,
          "time": 12.70269,
          "velocity": 0.4645669291338583,
          "duration": 0.13091203125000028
        },
        {
          "name": "G#4",
          "midi": 68,
          "time": 12.837825,
          "velocity": 0.4645669291338583,
          "duration": 0.13091203125000028
        },
        {
          "name": "F#4",
          "midi": 66,
          "time": 12.97296,
          "velocity": 0.4645669291338583,
          "duration": 0.24915515624999962
        },
        {
          "name": "F#4",
          "midi": 66,
          "time": 13.24323,
          "velocity": 0.4645669291338583,
          "duration": 0.06334453124999939
        },
        {
          "name": "F4",
          "midi": 65,
          "time": 13.3107975,
          "velocity": 0.4645669291338583,
          "duration": 0.06334453124999939
        },
        {
          "name": "F#4",
          "midi": 66,
          "time": 13.378364999999999,
          "velocity": 0.4645669291338583,
          "duration": 0.29983078124999984
        },
        {
          "name": "F#4",
          "midi": 66,
          "time": 13.648634999999999,
          "velocity": 0.4645669291338583,
          "duration": 0.06334453124999939
        },
        {
          "name": "G#4",
          "midi": 68,
          "time": 13.716202499999998,
          "velocity": 0.4645669291338583,
          "duration": 0.06334453124999939
        },
        {
          "name": "A#4",
          "midi": 70,
          "time": 13.783769999999997,
          "velocity": 0.4645669291338583,
          "duration": 0.4011820312500003
        },
        {
          "name": "G#4",
          "midi": 68,
          "time": 14.189174999999997,
          "velocity": 0.4645669291338583,
          "duration": 0.1984795312499994
        },
        {
          "name": "F#4",
          "midi": 66,
          "time": 14.391877499999996,
          "velocity": 0.4645669291338583,
          "duration": 0.1984795312499994
        },
        {
          "name": "F4",
          "midi": 65,
          "time": 14.594579999999995,
          "velocity": 0.4645669291338583,
          "duration": 0.29983078124999984
        },
        {
          "name": "F4",
          "midi": 65,
          "time": 14.864849999999995,
          "velocity": 0.4645669291338583,
          "duration": 0.06334453124999939
        },
        {
          "name": "D#4",
          "midi": 63,
          "time": 14.932417499999994,
          "velocity": 0.4645669291338583,
          "duration": 0.06334453124999939
        },
        {
          "name": "F4",
          "midi": 65,
          "time": 14.999984999999993,
          "velocity": 0.4645669291338583,
          "duration": 0.29983078124999984
        },
        {
          "name": "F4",
          "midi": 65,
          "time": 15.270254999999993,
          "velocity": 0.4645669291338583,
          "duration": 0.06334453124999939
        },
        {
          "name": "F#4",
          "midi": 66,
          "time": 15.337822499999993,
          "velocity": 0.4645669291338583,
          "duration": 0.06334453124999939
        },
        {
          "name": "G#4",
          "midi": 68,
          "time": 15.405389999999992,
          "velocity": 0.4645669291338583,
          "duration": 0.4011820312500003
        },
        {
          "name": "F#4",
          "midi": 66,
          "time": 15.810794999999992,
          "velocity": 0.4645669291338583,
          "duration": 0.19847953125000117
        },
        {
          "name": "F4",
          "midi": 65,
          "time": 16.013497499999993,
          "velocity": 0.4645669291338583,
          "duration": 0.19847953125000117
        },
        {
          "name": "E4",
          "midi": 64,
          "time": 16.216199999999994,
          "velocity": 0.4645669291338583,
          "duration": 0.4011820312499985
        },
        {
          "name": "E4",
          "midi": 64,
          "time": 16.62160499999999,
          "velocity": 0.4645669291338583,
          "duration": 0.2998307812500016
        },
        {
          "name": "F4",
          "midi": 65,
          "time": 16.925658749999993,
          "velocity": 0.4645669291338583,
          "duration": 0.09712828125000073
        },
        {
          "name": "G4",
          "midi": 67,
          "time": 17.027009999999994,
          "velocity": 0.4645669291338583,
          "duration": 0.2998307812500016
        },
        {
          "name": "G4",
          "midi": 67,
          "time": 17.297279999999994,
          "velocity": 0.4645669291338583,
          "duration": 0.06334453125000294
        },
        {
          "name": "A4",
          "midi": 69,
          "time": 17.364847499999996,
          "velocity": 0.4645669291338583,
          "duration": 0.06334453124999939
        },
        {
          "name": "A#4",
          "midi": 70,
          "time": 17.432414999999995,
          "velocity": 0.4645669291338583,
          "duration": 0.19847953125000117
        },
        {
          "name": "C5",
          "midi": 72,
          "time": 17.635117499999996,
          "velocity": 0.4645669291338583,
          "duration": 0.19847953125000117
        },
        {
          "name": "A4",
          "midi": 69,
          "time": 17.837819999999997,
          "velocity": 0.4645669291338583,
          "duration": 0.13513500000000178
        },
        {
          "name": "A3",
          "midi": 57,
          "time": 18.040522499999998,
          "velocity": 0.4645669291338583,
          "duration": 0.06756749999999911
        },
        {
          "name": "A3",
          "midi": 57,
          "time": 18.14187375,
          "velocity": 0.4645669291338583,
          "duration": 0.06756749999999911
        },
        {
          "name": "A3",
          "midi": 57,
          "time": 18.243225,
          "velocity": 0.4645669291338583,
          "duration": 0.13513500000000178
        },
        {
          "name": "A3",
          "midi": 57,
          "time": 18.4459275,
          "velocity": 0.4645669291338583,
          "duration": 0.06756749999999911
        },
        {
          "name": "A3",
          "midi": 57,
          "time": 18.54727875,
          "velocity": 0.4645669291338583,
          "duration": 0.06756749999999911
        },
        {
          "name": "A3",
          "midi": 57,
          "time": 18.64863,
          "velocity": 0.4645669291338583,
          "duration": 0.13513500000000178
        },
        {
          "name": "A3",
          "midi": 57,
          "time": 18.8513325,
          "velocity": 0.4645669291338583,
          "duration": 0.06756749999999911
        },
        {
          "name": "A3",
          "midi": 57,
          "time": 18.952683750000002,
          "velocity": 0.4645669291338583,
          "duration": 0.06756749999999911
        },
        {
          "name": "A3",
          "midi": 57,
          "time": 19.054035000000002,
          "velocity": 0.4645669291338583,
          "duration": 0.13513500000000178
        },
        {
          "name": "A3",
          "midi": 57,
          "time": 19.256737500000003,
          "velocity": 0.4645669291338583,
          "duration": 0.13513500000000178
        },
        {
          "name": "D4",
          "midi": 62,
          "time": 19.459440000000004,
          "velocity": 0.4645669291338583,
          "duration": 0.27027
        },
        {
          "name": "D4",
          "midi": 62,
          "time": 19.864845000000003,
          "velocity": 0.4645669291338583,
          "duration": 0.1309120312499985
        },
        {
          "name": "D4",
          "midi": 62,
          "time": 19.99998,
          "velocity": 0.4645669291338583,
          "duration": 0.1309120312499985
        },
        {
          "name": "C4",
          "midi": 60,
          "time": 20.135115,
          "velocity": 0.4645669291338583,
          "duration": 0.1309120312499985
        },
        {
          "name": "D4",
          "midi": 62,
          "time": 20.270249999999997,
          "velocity": 0.4645669291338583,
          "duration": 0.19847953125000117
        },
        {
          "name": "D4",
          "midi": 62,
          "time": 20.57430375,
          "velocity": 0.4645669291338583,
          "duration": 0.09712828125000073
        },
        {
          "name": "D4",
          "midi": 62,
          "time": 20.675655,
          "velocity": 0.4645669291338583,
          "duration": 0.09712828125000073
        },
        {
          "name": "D#4",
          "midi": 63,
          "time": 20.77700625,
          "velocity": 0.4645669291338583,
          "duration": 0.09712828125000073
        },
        {
          "name": "F4",
          "midi": 65,
          "time": 20.8783575,
          "velocity": 0.4645669291338583,
          "duration": 0.09712828125000073
        },
        {
          "name": "G4",
          "midi": 67,
          "time": 20.97970875,
          "velocity": 0.4645669291338583,
          "duration": 0.09712828125000073
        },
        {
          "name": "G#4",
          "midi": 68,
          "time": 21.08106,
          "velocity": 0.4645669291338583,
          "duration": 0.2998307812500016
        },
        {
          "name": "A#4",
          "midi": 70,
          "time": 21.385113750000002,
          "velocity": 0.4645669291338583,
          "duration": 0.09712828125000073
        },
        {
          "name": "A#4",
          "midi": 70,
          "time": 21.486465000000003,
          "velocity": 0.4645669291338583,
          "duration": 0.09712828125000073
        },
        {
          "name": "C5",
          "midi": 72,
          "time": 21.587816250000003,
          "velocity": 0.4645669291338583,
          "duration": 0.09712828125000073
        },
        {
          "name": "D5",
          "midi": 74,
          "time": 21.689167500000003,
          "velocity": 0.4645669291338583,
          "duration": 0.09712828125000073
        },
        {
          "name": "D#5",
          "midi": 75,
          "time": 21.790518750000004,
          "velocity": 0.4645669291338583,
          "duration": 0.09712828125000073
        },
        {
          "name": "F5",
          "midi": 77,
          "time": 21.891870000000004,
          "velocity": 0.4645669291338583,
          "duration": 0.19847953125000117
        },
        {
          "name": "F5",
          "midi": 77,
          "time": 22.094572500000005,
          "velocity": 0.4645669291338583,
          "duration": 0.19847953125000117
        },
        {
          "name": "G#4",
          "midi": 68,
          "time": 22.297275000000006,
          "velocity": 0.4645669291338583,
          "duration": 0.1309120312499985
        },
        {
          "name": "A#4",
          "midi": 70,
          "time": 22.432410000000004,
          "velocity": 0.4645669291338583,
          "duration": 0.1309120312499985
        },
        {
          "name": "C5",
          "midi": 72,
          "time": 22.567545000000003,
          "velocity": 0.4645669291338583,
          "duration": 0.1309120312499985
        },
        {
          "name": "C#5",
          "midi": 73,
          "time": 22.70268,
          "velocity": 0.4645669291338583,
          "duration": 1.2119920312499985
        },
        {
          "name": "E5",
          "midi": 76,
          "time": 23.918895,
          "velocity": 0.4645669291338583,
          "duration": 0.4011820312499985
        },
        {
          "name": "D#5",
          "midi": 75,
          "time": 24.324299999999997,
          "velocity": 0.4645669291338583,
          "duration": 0.2027025000000009
        },
        {
          "name": "C5",
          "midi": 72,
          "time": 24.729705,
          "velocity": 0.4645669291338583,
          "duration": 0.6756750000000018
        },
        {
          "name": "A4",
          "midi": 69,
          "time": 25.540515,
          "velocity": 0.4645669291338583,
          "duration": 0.4011820312499985
        },
        {
          "name": "B4",
          "midi": 71,
          "time": 25.945919999999997,
          "velocity": 0.4645669291338583,
          "duration": 0.8783774999999991
        },
        {
          "name": "C#5",
          "midi": 73,
          "time": 27.162134999999996,
          "velocity": 0.4645669291338583,
          "duration": 0.4011820312499985
        },
        {
          "name": "C5",
          "midi": 72,
          "time": 27.567539999999994,
          "velocity": 0.4645669291338583,
          "duration": 0.19847953125000117
        },
        {
          "name": "A4",
          "midi": 69,
          "time": 27.972944999999996,
          "velocity": 0.4645669291338583,
          "duration": 0.6756749999999982
        },
        {
          "name": "A4",
          "midi": 69,
          "time": 28.783754999999992,
          "velocity": 0.4645669291338583,
          "duration": 0.4011820312499985
        },
        {
          "name": "B4",
          "midi": 71,
          "time": 29.18915999999999,
          "velocity": 0.4645669291338583,
          "duration": 0.8065870312500003
        },
        {
          "name": "C#5",
          "midi": 73,
          "time": 30.405374999999992,
          "velocity": 0.4645669291338583,
          "duration": 0.4011820312499985
        },
        {
          "name": "C5",
          "midi": 72,
          "time": 30.81077999999999,
          "velocity": 0.4645669291338583,
          "duration": 0.19847953125000117
        },
        {
          "name": "A4",
          "midi": 69,
          "time": 31.216184999999992,
          "velocity": 0.4645669291338583,
          "duration": 0.8065870312500003
        },
        {
          "name": "A4",
          "midi": 69,
          "time": 32.02699499999999,
          "velocity": 0.4645669291338583,
          "duration": 0.40118203125000207
        },
        {
          "name": "F#4",
          "midi": 66,
          "time": 32.432399999999994,
          "velocity": 0.4645669291338583,
          "duration": 0.8065870312499968
        },
        {
          "name": "B4",
          "midi": 71,
          "time": 33.64861499999999,
          "velocity": 0.4645669291338583,
          "duration": 0.40118203125000207
        },
        {
          "name": "A#4",
          "midi": 70,
          "time": 34.054019999999994,
          "velocity": 0.4645669291338583,
          "duration": 0.19847953125000117
        },
        {
          "name": "F4",
          "midi": 65,
          "time": 34.459424999999996,
          "velocity": 0.4645669291338583,
          "duration": 0.8065870312499968
        },
        {
          "name": "C#4",
          "midi": 61,
          "time": 35.27023499999999,
          "velocity": 0.4645669291338583,
          "duration": 0.40118203125000207
        },
        {
          "name": "E4",
          "midi": 64,
          "time": 35.675639999999994,
          "velocity": 0.4645669291338583,
          "duration": 0.40118203125000207
        },
        {
          "name": "E4",
          "midi": 64,
          "time": 36.081044999999996,
          "velocity": 0.4645669291338583,
          "duration": 0.2998307812500016
        },
        {
          "name": "F4",
          "midi": 65,
          "time": 36.38509875,
          "velocity": 0.4645669291338583,
          "duration": 0.09712828125000073
        },
        {
          "name": "G4",
          "midi": 67,
          "time": 36.48645,
          "velocity": 0.4645669291338583,
          "duration": 0.2998307812500016
        },
        {
          "name": "G4",
          "midi": 67,
          "time": 36.75672,
          "velocity": 0.4645669291338583,
          "duration": 0.06334453124999584
        },
        {
          "name": "A4",
          "midi": 69,
          "time": 36.8242875,
          "velocity": 0.4645669291338583,
          "duration": 0.06334453125000294
        },
        {
          "name": "A#4",
          "midi": 70,
          "time": 36.891855,
          "velocity": 0.4645669291338583,
          "duration": 0.19847953125000117
        },
        {
          "name": "C5",
          "midi": 72,
          "time": 37.0945575,
          "velocity": 0.4645669291338583,
          "duration": 0.19847953125000117
        },
        {
          "name": "A4",
          "midi": 69,
          "time": 37.29726,
          "velocity": 0.4645669291338583,
          "duration": 0.13513499999999823
        },
        {
          "name": "A3",
          "midi": 57,
          "time": 37.4999625,
          "velocity": 0.4645669291338583,
          "duration": 0.06756750000000267
        },
        {
          "name": "A3",
          "midi": 57,
          "time": 37.60131375,
          "velocity": 0.4645669291338583,
          "duration": 0.06756750000000267
        },
        {
          "name": "A3",
          "midi": 57,
          "time": 37.702665,
          "velocity": 0.4645669291338583,
          "duration": 0.13513499999999823
        },
        {
          "name": "A3",
          "midi": 57,
          "time": 37.905367500000004,
          "velocity": 0.4645669291338583,
          "duration": 0.06756750000000267
        },
        {
          "name": "A3",
          "midi": 57,
          "time": 38.006718750000005,
          "velocity": 0.4645669291338583,
          "duration": 0.06756750000000267
        },
        {
          "name": "A3",
          "midi": 57,
          "time": 38.108070000000005,
          "velocity": 0.4645669291338583,
          "duration": 0.13513499999999823
        },
        {
          "name": "A3",
          "midi": 57,
          "time": 38.310772500000006,
          "velocity": 0.4645669291338583,
          "duration": 0.06756750000000267
        },
        {
          "name": "A3",
          "midi": 57,
          "time": 38.412123750000006,
          "velocity": 0.4645669291338583,
          "duration": 0.06756750000000267
        },
        {
          "name": "A3",
          "midi": 57,
          "time": 38.51347500000001,
          "velocity": 0.4645669291338583,
          "duration": 0.13513499999999823
        },
        {
          "name": "A3",
          "midi": 57,
          "time": 38.71617750000001,
          "velocity": 0.4645669291338583,
          "duration": 0.13513499999999823
        }
      ],
      "controlChanges": {
        "10": [
          {
            "number": 10,
            "time": 0,
            "value": 0.49606299212598426
          }
        ],
        "91": [
          {
            "number": 91,
            "time": 0,
            "value": 0
          }
        ]
      }
    },
    {
      "startTime": 0,
      "duration": 38.91465703124998,
      "length": 159,
      "id": 3,
      "name": "Bass Line",
      "instrumentNumber": 85,
      "instrument": "lead 6 (voice)",
      "instrumentFamily": "synth lead",
      "channelNumber": 2,
      "isPercussion": false,
      "notes": [
        {
          "name": "A#2",
          "midi": 46,
          "time": 0,
          "velocity": 1,
          "duration": 0.27027
        },
        {
          "name": "A#2",
          "midi": 46,
          "time": 0.405405,
          "velocity": 1,
          "duration": 0.08868234375
        },
        {
          "name": "A#2",
          "midi": 46,
          "time": 0.54054,
          "velocity": 1,
          "duration": 0.08868234374999995
        },
        {
          "name": "A#2",
          "midi": 46,
          "time": 0.675675,
          "velocity": 1,
          "duration": 0.08868234374999995
        },
        {
          "name": "A#2",
          "midi": 46,
          "time": 0.81081,
          "velocity": 1,
          "duration": 0.27027
        },
        {
          "name": "A#2",
          "midi": 46,
          "time": 1.216215,
          "velocity": 1,
          "duration": 0.08868234374999995
        },
        {
          "name": "A#2",
          "midi": 46,
          "time": 1.35135,
          "velocity": 1,
          "duration": 0.08868234374999995
        },
        {
          "name": "A#2",
          "midi": 46,
          "time": 1.486485,
          "velocity": 1,
          "duration": 0.08868234374999995
        },
        {
          "name": "G#2",
          "midi": 44,
          "time": 1.62162,
          "velocity": 1,
          "duration": 0.27027
        },
        {
          "name": "G#2",
          "midi": 44,
          "time": 2.027025,
          "velocity": 1,
          "duration": 0.08868234374999995
        },
        {
          "name": "G#2",
          "midi": 44,
          "time": 2.16216,
          "velocity": 1,
          "duration": 0.08868234374999995
        },
        {
          "name": "G#2",
          "midi": 44,
          "time": 2.297295,
          "velocity": 1,
          "duration": 0.08868234374999995
        },
        {
          "name": "G#2",
          "midi": 44,
          "time": 2.43243,
          "velocity": 1,
          "duration": 0.27027
        },
        {
          "name": "G#2",
          "midi": 44,
          "time": 2.837835,
          "velocity": 1,
          "duration": 0.08868234374999995
        },
        {
          "name": "G#2",
          "midi": 44,
          "time": 2.97297,
          "velocity": 1,
          "duration": 0.08868234374999995
        },
        {
          "name": "G#2",
          "midi": 44,
          "time": 3.108105,
          "velocity": 1,
          "duration": 0.08868234374999995
        },
        {
          "name": "F#2",
          "midi": 42,
          "time": 3.24324,
          "velocity": 1,
          "duration": 0.27027
        },
        {
          "name": "F#2",
          "midi": 42,
          "time": 3.648645,
          "velocity": 1,
          "duration": 0.08868234374999995
        },
        {
          "name": "F#2",
          "midi": 42,
          "time": 3.78378,
          "velocity": 1,
          "duration": 0.08868234374999995
        },
        {
          "name": "F#2",
          "midi": 42,
          "time": 3.918915,
          "velocity": 1,
          "duration": 0.08868234375000039
        },
        {
          "name": "F#2",
          "midi": 42,
          "time": 4.05405,
          "velocity": 1,
          "duration": 0.27027
        },
        {
          "name": "F#2",
          "midi": 42,
          "time": 4.459455,
          "velocity": 1,
          "duration": 0.08868234375000039
        },
        {
          "name": "F#2",
          "midi": 42,
          "time": 4.59459,
          "velocity": 1,
          "duration": 0.08868234375000039
        },
        {
          "name": "F#2",
          "midi": 42,
          "time": 4.729725,
          "velocity": 1,
          "duration": 0.08868234375000039
        },
        {
          "name": "F#2",
          "midi": 42,
          "time": 4.86486,
          "velocity": 1,
          "duration": 0.19847953125000029
        },
        {
          "name": "F2",
          "midi": 41,
          "time": 5.270265,
          "velocity": 1,
          "duration": 0.135135
        },
        {
          "name": "F2",
          "midi": 41,
          "time": 5.67567,
          "velocity": 1,
          "duration": 0.135135
        },
        {
          "name": "G2",
          "midi": 43,
          "time": 6.081075,
          "velocity": 1,
          "duration": 0.19847953125000029
        },
        {
          "name": "A2",
          "midi": 45,
          "time": 6.2837775,
          "velocity": 1,
          "duration": 0.19847953125000029
        },
        {
          "name": "A#2",
          "midi": 46,
          "time": 6.48648,
          "velocity": 1,
          "duration": 0.135135
        },
        {
          "name": "A#2",
          "midi": 46,
          "time": 6.891885,
          "velocity": 1,
          "duration": 0.08868234375000039
        },
        {
          "name": "A#2",
          "midi": 46,
          "time": 7.02702,
          "velocity": 1,
          "duration": 0.08868234375000039
        },
        {
          "name": "G#2",
          "midi": 44,
          "time": 7.162155,
          "velocity": 1,
          "duration": 0.08868234375000039
        },
        {
          "name": "A#2",
          "midi": 46,
          "time": 7.29729,
          "velocity": 1,
          "duration": 0.135135
        },
        {
          "name": "A#2",
          "midi": 46,
          "time": 7.702695,
          "velocity": 1,
          "duration": 0.135135
        },
        {
          "name": "G#2",
          "midi": 44,
          "time": 8.1081,
          "velocity": 1,
          "duration": 0.135135
        },
        {
          "name": "G#2",
          "midi": 44,
          "time": 8.513505,
          "velocity": 1,
          "duration": 0.0886823437499995
        },
        {
          "name": "G#2",
          "midi": 44,
          "time": 8.64864,
          "velocity": 1,
          "duration": 0.0886823437499995
        },
        {
          "name": "F#2",
          "midi": 42,
          "time": 8.783775,
          "velocity": 1,
          "duration": 0.0886823437499995
        },
        {
          "name": "G#2",
          "midi": 44,
          "time": 8.91891,
          "velocity": 1,
          "duration": 0.135135
        },
        {
          "name": "G#2",
          "midi": 44,
          "time": 9.324315,
          "velocity": 1,
          "duration": 0.135135
        },
        {
          "name": "F#2",
          "midi": 42,
          "time": 9.72972,
          "velocity": 1,
          "duration": 0.135135
        },
        {
          "name": "F#2",
          "midi": 42,
          "time": 10.135125,
          "velocity": 1,
          "duration": 0.0886823437499995
        },
        {
          "name": "F#2",
          "midi": 42,
          "time": 10.27026,
          "velocity": 1,
          "duration": 0.0886823437499995
        },
        {
          "name": "E2",
          "midi": 40,
          "time": 10.405395,
          "velocity": 1,
          "duration": 0.0886823437499995
        },
        {
          "name": "F#2",
          "midi": 42,
          "time": 10.54053,
          "velocity": 1,
          "duration": 0.135135
        },
        {
          "name": "F#2",
          "midi": 42,
          "time": 10.945935,
          "velocity": 1,
          "duration": 0.135135
        },
        {
          "name": "C#3",
          "midi": 49,
          "time": 11.35134,
          "velocity": 1,
          "duration": 0.1984795312499994
        },
        {
          "name": "C#3",
          "midi": 49,
          "time": 11.756745,
          "velocity": 1,
          "duration": 0.13091203125000028
        },
        {
          "name": "C#3",
          "midi": 49,
          "time": 11.89188,
          "velocity": 1,
          "duration": 0.13091203125000028
        },
        {
          "name": "B2",
          "midi": 47,
          "time": 12.027015,
          "velocity": 1,
          "duration": 0.13091203125000028
        },
        {
          "name": "C#3",
          "midi": 49,
          "time": 12.16215,
          "velocity": 1,
          "duration": 0.1984795312499994
        },
        {
          "name": "C#3",
          "midi": 49,
          "time": 12.567555,
          "velocity": 1,
          "duration": 0.1984795312499994
        },
        {
          "name": "B2",
          "midi": 47,
          "time": 12.97296,
          "velocity": 1,
          "duration": 0.1984795312499994
        },
        {
          "name": "B2",
          "midi": 47,
          "time": 13.378365,
          "velocity": 1,
          "duration": 0.13091203125000028
        },
        {
          "name": "B2",
          "midi": 47,
          "time": 13.5135,
          "velocity": 1,
          "duration": 0.13091203125000028
        },
        {
          "name": "A#2",
          "midi": 46,
          "time": 13.648635,
          "velocity": 1,
          "duration": 0.13091203125000028
        },
        {
          "name": "B2",
          "midi": 47,
          "time": 13.78377,
          "velocity": 1,
          "duration": 0.1984795312499994
        },
        {
          "name": "B2",
          "midi": 47,
          "time": 14.189175,
          "velocity": 1,
          "duration": 0.13091203125000028
        },
        {
          "name": "B2",
          "midi": 47,
          "time": 14.32431,
          "velocity": 1,
          "duration": 0.13091203125000028
        },
        {
          "name": "B2",
          "midi": 47,
          "time": 14.459445,
          "velocity": 1,
          "duration": 0.13091203125000028
        },
        {
          "name": "A#2",
          "midi": 46,
          "time": 14.59458,
          "velocity": 1,
          "duration": 0.1984795312499994
        },
        {
          "name": "A#2",
          "midi": 46,
          "time": 14.999985,
          "velocity": 1,
          "duration": 0.13091203125000028
        },
        {
          "name": "A#2",
          "midi": 46,
          "time": 15.13512,
          "velocity": 1,
          "duration": 0.13091203125000028
        },
        {
          "name": "G#2",
          "midi": 44,
          "time": 15.270255,
          "velocity": 1,
          "duration": 0.13091203125000028
        },
        {
          "name": "A#2",
          "midi": 46,
          "time": 15.40539,
          "velocity": 1,
          "duration": 0.1984795312499994
        },
        {
          "name": "A#2",
          "midi": 46,
          "time": 15.810795,
          "velocity": 1,
          "duration": 0.13091203125000028
        },
        {
          "name": "A#2",
          "midi": 46,
          "time": 15.94593,
          "velocity": 1,
          "duration": 0.1309120312499985
        },
        {
          "name": "A#2",
          "midi": 46,
          "time": 16.081065,
          "velocity": 1,
          "duration": 0.1309120312499985
        },
        {
          "name": "C3",
          "midi": 48,
          "time": 16.216199999999997,
          "velocity": 1,
          "duration": 0.19847953125000117
        },
        {
          "name": "C3",
          "midi": 48,
          "time": 16.621605,
          "velocity": 1,
          "duration": 0.1309120312499985
        },
        {
          "name": "C3",
          "midi": 48,
          "time": 16.756739999999997,
          "velocity": 1,
          "duration": 0.1309120312499985
        },
        {
          "name": "A#2",
          "midi": 46,
          "time": 16.891874999999995,
          "velocity": 1,
          "duration": 0.1309120312499985
        },
        {
          "name": "C3",
          "midi": 48,
          "time": 17.027009999999994,
          "velocity": 1,
          "duration": 0.19847953125000117
        },
        {
          "name": "C3",
          "midi": 48,
          "time": 17.432414999999995,
          "velocity": 1,
          "duration": 0.1309120312499985
        },
        {
          "name": "C3",
          "midi": 48,
          "time": 17.567549999999994,
          "velocity": 1,
          "duration": 0.1309120312499985
        },
        {
          "name": "C3",
          "midi": 48,
          "time": 17.702684999999992,
          "velocity": 1,
          "duration": 0.1309120312499985
        },
        {
          "name": "F2",
          "midi": 41,
          "time": 17.83781999999999,
          "velocity": 1,
          "duration": 0.13513500000000178
        },
        {
          "name": "F2",
          "midi": 41,
          "time": 18.243224999999992,
          "velocity": 1,
          "duration": 0.13513500000000178
        },
        {
          "name": "F2",
          "midi": 41,
          "time": 18.648629999999994,
          "velocity": 1,
          "duration": 0.13513500000000178
        },
        {
          "name": "G2",
          "midi": 43,
          "time": 19.054034999999995,
          "velocity": 1,
          "duration": 0.19847953125000117
        },
        {
          "name": "A2",
          "midi": 45,
          "time": 19.256737499999996,
          "velocity": 1,
          "duration": 0.19847953125000117
        },
        {
          "name": "A#2",
          "midi": 46,
          "time": 19.459439999999997,
          "velocity": 1,
          "duration": 0.13513500000000178
        },
        {
          "name": "A#2",
          "midi": 46,
          "time": 19.864845,
          "velocity": 1,
          "duration": 0.08868234375000128
        },
        {
          "name": "A#2",
          "midi": 46,
          "time": 19.99998,
          "velocity": 1,
          "duration": 0.08868234375000128
        },
        {
          "name": "G#2",
          "midi": 44,
          "time": 20.135115000000003,
          "velocity": 1,
          "duration": 0.08868234375000128
        },
        {
          "name": "A#2",
          "midi": 46,
          "time": 20.270250000000004,
          "velocity": 1,
          "duration": 0.13513499999999823
        },
        {
          "name": "A#2",
          "midi": 46,
          "time": 20.675655000000003,
          "velocity": 1,
          "duration": 0.13513500000000178
        },
        {
          "name": "G#2",
          "midi": 44,
          "time": 21.081060000000004,
          "velocity": 1,
          "duration": 0.13513500000000178
        },
        {
          "name": "G#2",
          "midi": 44,
          "time": 21.486465000000006,
          "velocity": 1,
          "duration": 0.08868234375000128
        },
        {
          "name": "G#2",
          "midi": 44,
          "time": 21.621600000000008,
          "velocity": 1,
          "duration": 0.08868234375000128
        },
        {
          "name": "F#2",
          "midi": 42,
          "time": 21.75673500000001,
          "velocity": 1,
          "duration": 0.08868234375000128
        },
        {
          "name": "G#2",
          "midi": 44,
          "time": 21.89187000000001,
          "velocity": 1,
          "duration": 0.13513499999999823
        },
        {
          "name": "G#2",
          "midi": 44,
          "time": 22.29727500000001,
          "velocity": 1,
          "duration": 0.13513500000000178
        },
        {
          "name": "F#2",
          "midi": 42,
          "time": 22.70268000000001,
          "velocity": 1,
          "duration": 0.13513500000000178
        },
        {
          "name": "F#2",
          "midi": 42,
          "time": 23.108085000000013,
          "velocity": 1,
          "duration": 0.08868234375000128
        },
        {
          "name": "F#2",
          "midi": 42,
          "time": 23.243220000000015,
          "velocity": 1,
          "duration": 0.08868234375000128
        },
        {
          "name": "E2",
          "midi": 40,
          "time": 23.378355000000017,
          "velocity": 1,
          "duration": 0.08868234375000128
        },
        {
          "name": "F#2",
          "midi": 42,
          "time": 23.51349000000002,
          "velocity": 1,
          "duration": 0.13513499999999823
        },
        {
          "name": "F#2",
          "midi": 42,
          "time": 23.918895000000017,
          "velocity": 1,
          "duration": 0.13513500000000178
        },
        {
          "name": "F2",
          "midi": 41,
          "time": 24.32430000000002,
          "velocity": 1,
          "duration": 0.13513500000000178
        },
        {
          "name": "F2",
          "midi": 41,
          "time": 24.72970500000002,
          "velocity": 1,
          "duration": 0.08868234375000128
        },
        {
          "name": "F2",
          "midi": 41,
          "time": 24.864840000000022,
          "velocity": 1,
          "duration": 0.08868234375000128
        },
        {
          "name": "D#2",
          "midi": 39,
          "time": 24.999975000000024,
          "velocity": 1,
          "duration": 0.1309120312499985
        },
        {
          "name": "F2",
          "midi": 41,
          "time": 25.135110000000022,
          "velocity": 1,
          "duration": 0.13513500000000178
        },
        {
          "name": "F2",
          "midi": 41,
          "time": 25.540515000000024,
          "velocity": 1,
          "duration": 0.13513500000000178
        },
        {
          "name": "E2",
          "midi": 40,
          "time": 25.945920000000026,
          "velocity": 1,
          "duration": 0.08868234375000128
        },
        {
          "name": "A#2",
          "midi": 46,
          "time": 26.081055000000028,
          "velocity": 1,
          "duration": 0.08868234375000128
        },
        {
          "name": "C#3",
          "midi": 49,
          "time": 26.21619000000003,
          "velocity": 1,
          "duration": 0.08868234375000128
        },
        {
          "name": "E3",
          "midi": 52,
          "time": 26.35132500000003,
          "velocity": 1,
          "duration": 0.08868234375000128
        },
        {
          "name": "A#3",
          "midi": 58,
          "time": 26.486460000000033,
          "velocity": 1,
          "duration": 0.08868234375000128
        },
        {
          "name": "C#4",
          "midi": 61,
          "time": 26.621595000000035,
          "velocity": 1,
          "duration": 0.08868234375000128
        },
        {
          "name": "E4",
          "midi": 64,
          "time": 26.756730000000037,
          "velocity": 1,
          "duration": 0.13513500000000178
        },
        {
          "name": "F4",
          "midi": 65,
          "time": 27.567540000000037,
          "velocity": 1,
          "duration": 0.13513499999999823
        },
        {
          "name": "F2",
          "midi": 41,
          "time": 27.972945000000035,
          "velocity": 1,
          "duration": 0.08868234375000128
        },
        {
          "name": "F2",
          "midi": 41,
          "time": 28.108080000000037,
          "velocity": 1,
          "duration": 0.08868234375000128
        },
        {
          "name": "F2",
          "midi": 41,
          "time": 28.24321500000004,
          "velocity": 1,
          "duration": 0.08868234375000128
        },
        {
          "name": "F2",
          "midi": 41,
          "time": 28.37835000000004,
          "velocity": 1,
          "duration": 0.13513499999999823
        },
        {
          "name": "E2",
          "midi": 40,
          "time": 29.189160000000037,
          "velocity": 1,
          "duration": 0.08868234375000128
        },
        {
          "name": "A#2",
          "midi": 46,
          "time": 29.32429500000004,
          "velocity": 1,
          "duration": 0.08868234375000128
        },
        {
          "name": "C#3",
          "midi": 49,
          "time": 29.45943000000004,
          "velocity": 1,
          "duration": 0.08868234375000128
        },
        {
          "name": "E3",
          "midi": 52,
          "time": 29.594565000000042,
          "velocity": 1,
          "duration": 0.08868234375000128
        },
        {
          "name": "A#3",
          "midi": 58,
          "time": 29.729700000000044,
          "velocity": 1,
          "duration": 0.08868234375000128
        },
        {
          "name": "C#4",
          "midi": 61,
          "time": 29.864835000000046,
          "velocity": 1,
          "duration": 0.08868234375000128
        },
        {
          "name": "E4",
          "midi": 64,
          "time": 29.999970000000047,
          "velocity": 1,
          "duration": 0.13513499999999823
        },
        {
          "name": "F4",
          "midi": 65,
          "time": 30.810780000000044,
          "velocity": 1,
          "duration": 0.13513499999999823
        },
        {
          "name": "F2",
          "midi": 41,
          "time": 31.216185000000042,
          "velocity": 1,
          "duration": 0.08868234375000128
        },
        {
          "name": "F2",
          "midi": 41,
          "time": 31.351320000000044,
          "velocity": 1,
          "duration": 0.08868234375000128
        },
        {
          "name": "F2",
          "midi": 41,
          "time": 31.486455000000046,
          "velocity": 1,
          "duration": 0.08868234375000128
        },
        {
          "name": "F2",
          "midi": 41,
          "time": 31.621590000000047,
          "velocity": 1,
          "duration": 0.13513499999999823
        },
        {
          "name": "B2",
          "midi": 47,
          "time": 32.432400000000044,
          "velocity": 1,
          "duration": 0.13513499999999823
        },
        {
          "name": "B2",
          "midi": 47,
          "time": 32.837805000000046,
          "velocity": 1,
          "duration": 0.08868234375000128
        },
        {
          "name": "B2",
          "midi": 47,
          "time": 32.972940000000044,
          "velocity": 1,
          "duration": 0.08868234375000128
        },
        {
          "name": "A#2",
          "midi": 46,
          "time": 33.10807500000004,
          "velocity": 1,
          "duration": 0.08868234375000128
        },
        {
          "name": "B2",
          "midi": 47,
          "time": 33.24321000000004,
          "velocity": 1,
          "duration": 0.13513499999999823
        },
        {
          "name": "B2",
          "midi": 47,
          "time": 33.648615000000035,
          "velocity": 1,
          "duration": 0.08868234375000128
        },
        {
          "name": "B2",
          "midi": 47,
          "time": 33.78375000000003,
          "velocity": 1,
          "duration": 0.08868234375000128
        },
        {
          "name": "B2",
          "midi": 47,
          "time": 33.91888500000003,
          "velocity": 1,
          "duration": 0.08868234375000128
        },
        {
          "name": "A#2",
          "midi": 46,
          "time": 34.05402000000003,
          "velocity": 1,
          "duration": 0.13513499999999823
        },
        {
          "name": "A#2",
          "midi": 46,
          "time": 34.459425000000024,
          "velocity": 1,
          "duration": 0.08868234375000128
        },
        {
          "name": "A#2",
          "midi": 46,
          "time": 34.59456000000002,
          "velocity": 1,
          "duration": 0.08868234375000128
        },
        {
          "name": "G#2",
          "midi": 44,
          "time": 34.72969500000002,
          "velocity": 1,
          "duration": 0.08868234375000128
        },
        {
          "name": "A#2",
          "midi": 46,
          "time": 34.86483000000002,
          "velocity": 1,
          "duration": 0.13513499999999823
        },
        {
          "name": "A#2",
          "midi": 46,
          "time": 35.270235000000014,
          "velocity": 1,
          "duration": 0.08868234375000128
        },
        {
          "name": "A#2",
          "midi": 46,
          "time": 35.40537000000001,
          "velocity": 1,
          "duration": 0.08868234375000128
        },
        {
          "name": "A#2",
          "midi": 46,
          "time": 35.54050500000001,
          "velocity": 1,
          "duration": 0.08868234375000128
        },
        {
          "name": "C3",
          "midi": 48,
          "time": 35.67564000000001,
          "velocity": 1,
          "duration": 0.13513499999999823
        },
        {
          "name": "C3",
          "midi": 48,
          "time": 36.081045,
          "velocity": 1,
          "duration": 0.08868234375000128
        },
        {
          "name": "C3",
          "midi": 48,
          "time": 36.21618,
          "velocity": 1,
          "duration": 0.08868234375000128
        },
        {
          "name": "C3",
          "midi": 48,
          "time": 36.351315,
          "velocity": 1,
          "duration": 0.08868234375000128
        },
        {
          "name": "C3",
          "midi": 48,
          "time": 36.48645,
          "velocity": 1,
          "duration": 0.13513499999999823
        },
        {
          "name": "C3",
          "midi": 48,
          "time": 36.89185499999999,
          "velocity": 1,
          "duration": 0.08868234375000128
        },
        {
          "name": "C3",
          "midi": 48,
          "time": 37.02698999999999,
          "velocity": 1,
          "duration": 0.08868234375000128
        },
        {
          "name": "C3",
          "midi": 48,
          "time": 37.16212499999999,
          "velocity": 1,
          "duration": 0.08868234375000128
        },
        {
          "name": "F2",
          "midi": 41,
          "time": 37.29725999999999,
          "velocity": 1,
          "duration": 0.13513499999999823
        },
        {
          "name": "F2",
          "midi": 41,
          "time": 37.70266499999998,
          "velocity": 1,
          "duration": 0.13513499999999823
        },
        {
          "name": "F2",
          "midi": 41,
          "time": 38.14185374999998,
          "velocity": 1,
          "duration": 0.13513499999999823
        },
        {
          "name": "G2",
          "midi": 43,
          "time": 38.51347499999998,
          "velocity": 1,
          "duration": 0.19847953125000117
        },
        {
          "name": "A2",
          "midi": 45,
          "time": 38.71617749999998,
          "velocity": 1,
          "duration": 0.19847953125000117
        }
      ]
    },
    {
      "startTime": 0,
      "duration": 38.64861000000004,
      "length": 137,
      "id": 4,
      "name": "Percussion",
      "instrumentNumber": 0,
      "instrument": "standard kit",
      "instrumentFamily": "drums",
      "channelNumber": 9,
      "isPercussion": true,
      "notes": [
        {
          "name": "D2",
          "midi": 38,
          "time": 0,
          "velocity": 0.33858267716535434,
          "duration": 0.27027
        },
        {
          "name": "D2",
          "midi": 38,
          "time": 1.216215,
          "velocity": 0.33858267716535434,
          "duration": 0.08868234374999995
        },
        {
          "name": "D2",
          "midi": 38,
          "time": 1.35135,
          "velocity": 0.33858267716535434,
          "duration": 0.08868234374999995
        },
        {
          "name": "D2",
          "midi": 38,
          "time": 1.486485,
          "velocity": 0.33858267716535434,
          "duration": 0.08868234374999995
        },
        {
          "name": "D2",
          "midi": 38,
          "time": 1.62162,
          "velocity": 0.33858267716535434,
          "duration": 0.27027
        },
        {
          "name": "D2",
          "midi": 38,
          "time": 2.837835,
          "velocity": 0.33858267716535434,
          "duration": 0.08868234374999995
        },
        {
          "name": "D2",
          "midi": 38,
          "time": 2.97297,
          "velocity": 0.33858267716535434,
          "duration": 0.08868234374999995
        },
        {
          "name": "D2",
          "midi": 38,
          "time": 3.108105,
          "velocity": 0.33858267716535434,
          "duration": 0.08868234374999995
        },
        {
          "name": "D2",
          "midi": 38,
          "time": 3.24324,
          "velocity": 0.33858267716535434,
          "duration": 0.27027
        },
        {
          "name": "D2",
          "midi": 38,
          "time": 4.459455,
          "velocity": 0.33858267716535434,
          "duration": 0.08868234375000039
        },
        {
          "name": "D2",
          "midi": 38,
          "time": 4.59459,
          "velocity": 0.33858267716535434,
          "duration": 0.08868234375000039
        },
        {
          "name": "D2",
          "midi": 38,
          "time": 4.729725,
          "velocity": 0.33858267716535434,
          "duration": 0.08868234375000039
        },
        {
          "name": "D2",
          "midi": 38,
          "time": 4.86486,
          "velocity": 0.33858267716535434,
          "duration": 0.135135
        },
        {
          "name": "D2",
          "midi": 38,
          "time": 5.270265,
          "velocity": 0.33858267716535434,
          "duration": 0.135135
        },
        {
          "name": "D2",
          "midi": 38,
          "time": 5.67567,
          "velocity": 0.33858267716535434,
          "duration": 0.135135
        },
        {
          "name": "D2",
          "midi": 38,
          "time": 6.081075,
          "velocity": 0.33858267716535434,
          "duration": 0.135135
        },
        {
          "name": "D2",
          "midi": 38,
          "time": 6.2837775,
          "velocity": 0.33858267716535434,
          "duration": 0.135135
        },
        {
          "name": "D2",
          "midi": 38,
          "time": 6.48648,
          "velocity": 0.33858267716535434,
          "duration": 0.135135
        },
        {
          "name": "D2",
          "midi": 38,
          "time": 6.891885,
          "velocity": 0.33858267716535434,
          "duration": 0.08868234375000039
        },
        {
          "name": "D2",
          "midi": 38,
          "time": 7.02702,
          "velocity": 0.33858267716535434,
          "duration": 0.08868234375000039
        },
        {
          "name": "D2",
          "midi": 38,
          "time": 7.162155,
          "velocity": 0.33858267716535434,
          "duration": 0.08868234375000039
        },
        {
          "name": "D2",
          "midi": 38,
          "time": 7.29729,
          "velocity": 0.33858267716535434,
          "duration": 0.135135
        },
        {
          "name": "D2",
          "midi": 38,
          "time": 7.702695,
          "velocity": 0.33858267716535434,
          "duration": 0.135135
        },
        {
          "name": "D2",
          "midi": 38,
          "time": 8.1081,
          "velocity": 0.33858267716535434,
          "duration": 0.135135
        },
        {
          "name": "D2",
          "midi": 38,
          "time": 8.513505,
          "velocity": 0.33858267716535434,
          "duration": 0.0886823437499995
        },
        {
          "name": "D2",
          "midi": 38,
          "time": 8.64864,
          "velocity": 0.33858267716535434,
          "duration": 0.0886823437499995
        },
        {
          "name": "D2",
          "midi": 38,
          "time": 8.783775,
          "velocity": 0.33858267716535434,
          "duration": 0.0886823437499995
        },
        {
          "name": "D2",
          "midi": 38,
          "time": 8.91891,
          "velocity": 0.33858267716535434,
          "duration": 0.135135
        },
        {
          "name": "D2",
          "midi": 38,
          "time": 9.324315,
          "velocity": 0.33858267716535434,
          "duration": 0.135135
        },
        {
          "name": "D2",
          "midi": 38,
          "time": 9.72972,
          "velocity": 0.33858267716535434,
          "duration": 0.135135
        },
        {
          "name": "D2",
          "midi": 38,
          "time": 10.135125,
          "velocity": 0.33858267716535434,
          "duration": 0.0886823437499995
        },
        {
          "name": "D2",
          "midi": 38,
          "time": 10.27026,
          "velocity": 0.33858267716535434,
          "duration": 0.0886823437499995
        },
        {
          "name": "D2",
          "midi": 38,
          "time": 10.405395,
          "velocity": 0.33858267716535434,
          "duration": 0.0886823437499995
        },
        {
          "name": "D2",
          "midi": 38,
          "time": 10.54053,
          "velocity": 0.33858267716535434,
          "duration": 0.135135
        },
        {
          "name": "D2",
          "midi": 38,
          "time": 10.945935,
          "velocity": 0.33858267716535434,
          "duration": 0.135135
        },
        {
          "name": "D2",
          "midi": 38,
          "time": 11.35134,
          "velocity": 0.33858267716535434,
          "duration": 0.135135
        },
        {
          "name": "D2",
          "midi": 38,
          "time": 11.756745,
          "velocity": 0.33858267716535434,
          "duration": 0.0886823437499995
        },
        {
          "name": "D2",
          "midi": 38,
          "time": 11.89188,
          "velocity": 0.33858267716535434,
          "duration": 0.0886823437499995
        },
        {
          "name": "D2",
          "midi": 38,
          "time": 12.027015,
          "velocity": 0.33858267716535434,
          "duration": 0.0886823437499995
        },
        {
          "name": "D2",
          "midi": 38,
          "time": 12.16215,
          "velocity": 0.33858267716535434,
          "duration": 0.135135
        },
        {
          "name": "D2",
          "midi": 38,
          "time": 12.567555,
          "velocity": 0.33858267716535434,
          "duration": 0.135135
        },
        {
          "name": "D2",
          "midi": 38,
          "time": 12.97296,
          "velocity": 0.33858267716535434,
          "duration": 0.135135
        },
        {
          "name": "D2",
          "midi": 38,
          "time": 13.378365,
          "velocity": 0.33858267716535434,
          "duration": 0.0886823437499995
        },
        {
          "name": "D2",
          "midi": 38,
          "time": 13.5135,
          "velocity": 0.33858267716535434,
          "duration": 0.0886823437499995
        },
        {
          "name": "D2",
          "midi": 38,
          "time": 13.648635,
          "velocity": 0.33858267716535434,
          "duration": 0.0886823437499995
        },
        {
          "name": "D2",
          "midi": 38,
          "time": 13.78377,
          "velocity": 0.33858267716535434,
          "duration": 0.135135
        },
        {
          "name": "D2",
          "midi": 38,
          "time": 14.189175,
          "velocity": 0.33858267716535434,
          "duration": 0.135135
        },
        {
          "name": "D2",
          "midi": 38,
          "time": 14.59458,
          "velocity": 0.33858267716535434,
          "duration": 0.135135
        },
        {
          "name": "D2",
          "midi": 38,
          "time": 14.999985,
          "velocity": 0.33858267716535434,
          "duration": 0.0886823437499995
        },
        {
          "name": "D2",
          "midi": 38,
          "time": 15.13512,
          "velocity": 0.33858267716535434,
          "duration": 0.0886823437499995
        },
        {
          "name": "D2",
          "midi": 38,
          "time": 15.270255,
          "velocity": 0.33858267716535434,
          "duration": 0.0886823437499995
        },
        {
          "name": "D2",
          "midi": 38,
          "time": 15.40539,
          "velocity": 0.33858267716535434,
          "duration": 0.135135
        },
        {
          "name": "D2",
          "midi": 38,
          "time": 15.810795,
          "velocity": 0.33858267716535434,
          "duration": 0.135135
        },
        {
          "name": "D2",
          "midi": 38,
          "time": 16.2162,
          "velocity": 0.33858267716535434,
          "duration": 0.13513499999999823
        },
        {
          "name": "D2",
          "midi": 38,
          "time": 16.621605,
          "velocity": 0.33858267716535434,
          "duration": 0.08868234375000128
        },
        {
          "name": "D2",
          "midi": 38,
          "time": 16.75674,
          "velocity": 0.33858267716535434,
          "duration": 0.08868234375000128
        },
        {
          "name": "D2",
          "midi": 38,
          "time": 16.891875000000002,
          "velocity": 0.33858267716535434,
          "duration": 0.08868234375000128
        },
        {
          "name": "D2",
          "midi": 38,
          "time": 17.027010000000004,
          "velocity": 0.33858267716535434,
          "duration": 0.13513499999999823
        },
        {
          "name": "D2",
          "midi": 38,
          "time": 17.432415000000002,
          "velocity": 0.33858267716535434,
          "duration": 0.13513500000000178
        },
        {
          "name": "D2",
          "midi": 38,
          "time": 17.837820000000004,
          "velocity": 0.33858267716535434,
          "duration": 0.13513500000000178
        },
        {
          "name": "D2",
          "midi": 38,
          "time": 18.243225000000006,
          "velocity": 0.33858267716535434,
          "duration": 0.08868234375000128
        },
        {
          "name": "D2",
          "midi": 38,
          "time": 18.378360000000008,
          "velocity": 0.33858267716535434,
          "duration": 0.08868234375000128
        },
        {
          "name": "D2",
          "midi": 38,
          "time": 18.51349500000001,
          "velocity": 0.33858267716535434,
          "duration": 0.08868234375000128
        },
        {
          "name": "D2",
          "midi": 38,
          "time": 18.64863000000001,
          "velocity": 0.33858267716535434,
          "duration": 0.13513499999999823
        },
        {
          "name": "D2",
          "midi": 38,
          "time": 19.05403500000001,
          "velocity": 0.33858267716535434,
          "duration": 0.13513500000000178
        },
        {
          "name": "D2",
          "midi": 38,
          "time": 19.45944000000001,
          "velocity": 0.33858267716535434,
          "duration": 0.13513500000000178
        },
        {
          "name": "D2",
          "midi": 38,
          "time": 19.864845000000013,
          "velocity": 0.33858267716535434,
          "duration": 0.08868234375000128
        },
        {
          "name": "D2",
          "midi": 38,
          "time": 19.999980000000015,
          "velocity": 0.33858267716535434,
          "duration": 0.08868234375000128
        },
        {
          "name": "D2",
          "midi": 38,
          "time": 20.135115000000017,
          "velocity": 0.33858267716535434,
          "duration": 0.08868234375000128
        },
        {
          "name": "D2",
          "midi": 38,
          "time": 20.27025000000002,
          "velocity": 0.33858267716535434,
          "duration": 0.13513499999999823
        },
        {
          "name": "D2",
          "midi": 38,
          "time": 20.675655000000017,
          "velocity": 0.33858267716535434,
          "duration": 0.13513500000000178
        },
        {
          "name": "D2",
          "midi": 38,
          "time": 21.08106000000002,
          "velocity": 0.33858267716535434,
          "duration": 0.13513500000000178
        },
        {
          "name": "D2",
          "midi": 38,
          "time": 21.48646500000002,
          "velocity": 0.33858267716535434,
          "duration": 0.08868234375000128
        },
        {
          "name": "D2",
          "midi": 38,
          "time": 21.621600000000022,
          "velocity": 0.33858267716535434,
          "duration": 0.08868234375000128
        },
        {
          "name": "D2",
          "midi": 38,
          "time": 21.756735000000024,
          "velocity": 0.33858267716535434,
          "duration": 0.08868234375000128
        },
        {
          "name": "D2",
          "midi": 38,
          "time": 21.891870000000026,
          "velocity": 0.33858267716535434,
          "duration": 0.13513499999999823
        },
        {
          "name": "D2",
          "midi": 38,
          "time": 22.297275000000024,
          "velocity": 0.33858267716535434,
          "duration": 0.13513500000000178
        },
        {
          "name": "D2",
          "midi": 38,
          "time": 22.702680000000026,
          "velocity": 0.33858267716535434,
          "duration": 0.13513500000000178
        },
        {
          "name": "D2",
          "midi": 38,
          "time": 23.108085000000028,
          "velocity": 0.33858267716535434,
          "duration": 0.08868234375000128
        },
        {
          "name": "D2",
          "midi": 38,
          "time": 23.24322000000003,
          "velocity": 0.33858267716535434,
          "duration": 0.08868234375000128
        },
        {
          "name": "D2",
          "midi": 38,
          "time": 23.37835500000003,
          "velocity": 0.33858267716535434,
          "duration": 0.08868234375000128
        },
        {
          "name": "D2",
          "midi": 38,
          "time": 23.513490000000033,
          "velocity": 0.33858267716535434,
          "duration": 0.13513499999999823
        },
        {
          "name": "D2",
          "midi": 38,
          "time": 23.91889500000003,
          "velocity": 0.33858267716535434,
          "duration": 0.13513500000000178
        },
        {
          "name": "D2",
          "midi": 38,
          "time": 24.324300000000033,
          "velocity": 0.33858267716535434,
          "duration": 0.13513500000000178
        },
        {
          "name": "D2",
          "midi": 38,
          "time": 24.729705000000035,
          "velocity": 0.33858267716535434,
          "duration": 0.08868234375000128
        },
        {
          "name": "D2",
          "midi": 38,
          "time": 24.864840000000036,
          "velocity": 0.33858267716535434,
          "duration": 0.08868234375000128
        },
        {
          "name": "D2",
          "midi": 38,
          "time": 24.99997500000004,
          "velocity": 0.33858267716535434,
          "duration": 0.08868234375000128
        },
        {
          "name": "D2",
          "midi": 38,
          "time": 25.13511000000004,
          "velocity": 0.33858267716535434,
          "duration": 0.13513499999999823
        },
        {
          "name": "D2",
          "midi": 38,
          "time": 25.54051500000004,
          "velocity": 0.33858267716535434,
          "duration": 0.13513500000000178
        },
        {
          "name": "D2",
          "midi": 38,
          "time": 25.94592000000004,
          "velocity": 0.33858267716535434,
          "duration": 0.13513500000000178
        },
        {
          "name": "D2",
          "midi": 38,
          "time": 26.351325000000042,
          "velocity": 0.33858267716535434,
          "duration": 0.08868234375000128
        },
        {
          "name": "D2",
          "midi": 38,
          "time": 26.486460000000044,
          "velocity": 0.33858267716535434,
          "duration": 0.08868234375000128
        },
        {
          "name": "D2",
          "midi": 38,
          "time": 26.621595000000045,
          "velocity": 0.33858267716535434,
          "duration": 0.08868234375000128
        },
        {
          "name": "D2",
          "midi": 38,
          "time": 26.756730000000047,
          "velocity": 0.33858267716535434,
          "duration": 0.13513499999999823
        },
        {
          "name": "D2",
          "midi": 38,
          "time": 27.162135000000045,
          "velocity": 0.33858267716535434,
          "duration": 0.13513500000000178
        },
        {
          "name": "D2",
          "midi": 38,
          "time": 27.567540000000047,
          "velocity": 0.33858267716535434,
          "duration": 0.13513500000000178
        },
        {
          "name": "D2",
          "midi": 38,
          "time": 27.97294500000005,
          "velocity": 0.33858267716535434,
          "duration": 0.08868234375000128
        },
        {
          "name": "D2",
          "midi": 38,
          "time": 28.10808000000005,
          "velocity": 0.33858267716535434,
          "duration": 0.08868234375000128
        },
        {
          "name": "D2",
          "midi": 38,
          "time": 28.243215000000053,
          "velocity": 0.33858267716535434,
          "duration": 0.08868234375000128
        },
        {
          "name": "D2",
          "midi": 38,
          "time": 28.378350000000054,
          "velocity": 0.33858267716535434,
          "duration": 0.13513499999999823
        },
        {
          "name": "D2",
          "midi": 38,
          "time": 28.783755000000053,
          "velocity": 0.33858267716535434,
          "duration": 0.13513500000000178
        },
        {
          "name": "D2",
          "midi": 38,
          "time": 29.189160000000054,
          "velocity": 0.33858267716535434,
          "duration": 0.13513500000000178
        },
        {
          "name": "D2",
          "midi": 38,
          "time": 29.594565000000056,
          "velocity": 0.33858267716535434,
          "duration": 0.08868234375000128
        },
        {
          "name": "D2",
          "midi": 38,
          "time": 29.729700000000058,
          "velocity": 0.33858267716535434,
          "duration": 0.08868234375000128
        },
        {
          "name": "D2",
          "midi": 38,
          "time": 29.86483500000006,
          "velocity": 0.33858267716535434,
          "duration": 0.08868234375000128
        },
        {
          "name": "D2",
          "midi": 38,
          "time": 29.99997000000006,
          "velocity": 0.33858267716535434,
          "duration": 0.13513499999999823
        },
        {
          "name": "D2",
          "midi": 38,
          "time": 30.40537500000006,
          "velocity": 0.33858267716535434,
          "duration": 0.13513500000000178
        },
        {
          "name": "D2",
          "midi": 38,
          "time": 30.81078000000006,
          "velocity": 0.33858267716535434,
          "duration": 0.13513500000000178
        },
        {
          "name": "D2",
          "midi": 38,
          "time": 31.216185000000063,
          "velocity": 0.33858267716535434,
          "duration": 0.08868234375000128
        },
        {
          "name": "D2",
          "midi": 38,
          "time": 31.351320000000065,
          "velocity": 0.33858267716535434,
          "duration": 0.08868234375000128
        },
        {
          "name": "D2",
          "midi": 38,
          "time": 31.486455000000067,
          "velocity": 0.33858267716535434,
          "duration": 0.08868234375000128
        },
        {
          "name": "D2",
          "midi": 38,
          "time": 31.62159000000007,
          "velocity": 0.33858267716535434,
          "duration": 0.13513499999999823
        },
        {
          "name": "D2",
          "midi": 38,
          "time": 32.02699500000007,
          "velocity": 0.33858267716535434,
          "duration": 0.13513499999999823
        },
        {
          "name": "D2",
          "midi": 38,
          "time": 32.43240000000007,
          "velocity": 0.33858267716535434,
          "duration": 0.13513499999999823
        },
        {
          "name": "D2",
          "midi": 38,
          "time": 32.837805000000074,
          "velocity": 0.33858267716535434,
          "duration": 0.08868234375000128
        },
        {
          "name": "D2",
          "midi": 38,
          "time": 32.97294000000007,
          "velocity": 0.33858267716535434,
          "duration": 0.08868234375000128
        },
        {
          "name": "D2",
          "midi": 38,
          "time": 33.10807500000007,
          "velocity": 0.33858267716535434,
          "duration": 0.08868234375000128
        },
        {
          "name": "D2",
          "midi": 38,
          "time": 33.24321000000007,
          "velocity": 0.33858267716535434,
          "duration": 0.13513499999999823
        },
        {
          "name": "D2",
          "midi": 38,
          "time": 33.64861500000006,
          "velocity": 0.33858267716535434,
          "duration": 0.13513499999999823
        },
        {
          "name": "D2",
          "midi": 38,
          "time": 34.054020000000065,
          "velocity": 0.33858267716535434,
          "duration": 0.13513499999999823
        },
        {
          "name": "D2",
          "midi": 38,
          "time": 34.45942500000007,
          "velocity": 0.33858267716535434,
          "duration": 0.08868234375000128
        },
        {
          "name": "D2",
          "midi": 38,
          "time": 34.594560000000065,
          "velocity": 0.33858267716535434,
          "duration": 0.08868234375000128
        },
        {
          "name": "D2",
          "midi": 38,
          "time": 34.72969500000006,
          "velocity": 0.33858267716535434,
          "duration": 0.08868234375000128
        },
        {
          "name": "D2",
          "midi": 38,
          "time": 34.86483000000006,
          "velocity": 0.33858267716535434,
          "duration": 0.13513499999999823
        },
        {
          "name": "D2",
          "midi": 38,
          "time": 35.270235000000056,
          "velocity": 0.33858267716535434,
          "duration": 0.13513499999999823
        },
        {
          "name": "D2",
          "midi": 38,
          "time": 35.67564000000006,
          "velocity": 0.33858267716535434,
          "duration": 0.13513499999999823
        },
        {
          "name": "D2",
          "midi": 38,
          "time": 36.08104500000006,
          "velocity": 0.33858267716535434,
          "duration": 0.08868234375000128
        },
        {
          "name": "D2",
          "midi": 38,
          "time": 36.21618000000006,
          "velocity": 0.33858267716535434,
          "duration": 0.08868234375000128
        },
        {
          "name": "D2",
          "midi": 38,
          "time": 36.351315000000056,
          "velocity": 0.33858267716535434,
          "duration": 0.08868234375000128
        },
        {
          "name": "D2",
          "midi": 38,
          "time": 36.486450000000055,
          "velocity": 0.33858267716535434,
          "duration": 0.13513499999999823
        },
        {
          "name": "D2",
          "midi": 38,
          "time": 36.89185500000005,
          "velocity": 0.33858267716535434,
          "duration": 0.13513499999999823
        },
        {
          "name": "D2",
          "midi": 38,
          "time": 37.29726000000005,
          "velocity": 0.33858267716535434,
          "duration": 0.13513499999999823
        },
        {
          "name": "D2",
          "midi": 38,
          "time": 37.70266500000005,
          "velocity": 0.33858267716535434,
          "duration": 0.08868234375000128
        },
        {
          "name": "D2",
          "midi": 38,
          "time": 37.83780000000005,
          "velocity": 0.33858267716535434,
          "duration": 0.08868234375000128
        },
        {
          "name": "D2",
          "midi": 38,
          "time": 37.97293500000005,
          "velocity": 0.33858267716535434,
          "duration": 0.08868234375000128
        },
        {
          "name": "D2",
          "midi": 38,
          "time": 38.10807000000005,
          "velocity": 0.33858267716535434,
          "duration": 0.13513499999999823
        },
        {
          "name": "D2",
          "midi": 38,
          "time": 38.51347500000004,
          "velocity": 0.33858267716535434,
          "duration": 0.13513499999999823
        }
      ]
    },
    {
      "startTime": 0,
      "duration": 0,
      "length": 0,
      "id": 5,
      "name": "Jeffrey M Colletti"
    },
    {
      "startTime": 0,
      "duration": 0,
      "length": 0,
      "id": 6,
      "name": "jcollett@attila.stevens-tech.edu"
    },
    {
      "startTime": 0,
      "duration": 0,
      "length": 0,
      "id": 7
    },
    {
      "startTime": 0,
      "duration": 0,
      "length": 0,
      "id": 8
    },
    {
      "startTime": 0,
      "duration": 0,
      "length": 0,
      "id": 9
    },
    {
      "startTime": 0,
      "duration": 0,
      "length": 0,
      "id": 10
    },
    {
      "startTime": 0,
      "duration": 0,
      "length": 0,
      "id": 11
    },
    {
      "startTime": 0,
      "duration": 0,
      "length": 0,
      "id": 12
    },
    {
      "startTime": 0,
      "duration": 0,
      "length": 0,
      "id": 13
    }
  ]
}
