<?xml version="1.0" encoding="iso-8859-1"?>
<!-- Generator: Adobe Illustrator 19.0.0, SVG Export Plug-In . SVG Version: 6.00 Build 0)  -->
<svg version="1.1" id="Layer_1" xmlns="http://www.w3.org/2000/svg" xmlns:xlink="http://www.w3.org/1999/xlink" x="0px" y="0px"
	 viewBox="0 0 512.004 512.004" style="enable-background:new 0 0 512.004 512.004;" xml:space="preserve">
<g>
	<g>
		<g>
			<path d="M469.336,17.069h-102.4c-4.719,0-8.533,3.823-8.533,8.533c0,4.71,3.814,8.533,8.533,8.533h102.4
				c14.114,0,25.6,11.486,25.6,25.6v392.533c0,14.114-11.486,25.6-25.6,25.6h-102.4c-4.719,0-8.533,3.823-8.533,8.533
				s3.814,8.533,8.533,8.533h102.4c23.526,0,42.667-19.14,42.667-42.667V59.735C512.002,36.209,492.862,17.069,469.336,17.069z"/>
			<path d="M196.269,341.336c4.719,0,8.533-3.823,8.533-8.533c0-4.71-3.814-8.533-8.533-8.533h-102.4
				c-4.719,0-8.533,3.823-8.533,8.533v34.133c0,4.71,3.814,8.533,8.533,8.533h102.4c4.719,0,8.533-3.823,8.533-8.533
				s-3.814-8.533-8.533-8.533h-93.867v-17.067H196.269z"/>
			<path d="M321.769,2.502c-3.337-3.336-8.73-3.336-12.066,0l-11.034,11.034L287.635,2.502c-3.337-3.336-8.73-3.336-12.066,0
				l-11.034,11.034L253.502,2.502c-3.337-3.336-8.73-3.336-12.066,0l-17.067,17.067c-1.604,1.596-2.5,3.772-2.5,6.033v460.8
				c0,2.261,0.896,4.437,2.5,6.033l17.067,17.067c3.337,3.337,8.73,3.337,12.066,0l11.034-11.034l11.034,11.034
				c3.336,3.337,8.73,3.337,12.066,0l11.034-11.034l11.034,11.034c1.664,1.664,3.849,2.5,6.033,2.5c2.185,0,4.369-0.836,6.033-2.5
				l17.067-17.067c1.604-1.596,2.5-3.772,2.5-6.033v-460.8c0-2.261-0.896-4.437-2.5-6.033L321.769,2.502z M256.002,482.869
				l-8.533,8.533l-8.533-8.533V29.135l8.533-8.533l8.533,8.533V482.869z M290.135,482.869l-8.533,8.533l-8.533-8.533V29.135
				l8.533-8.533l8.533,8.533V482.869z M324.269,482.869l-8.533,8.533l-8.533-8.533V29.135l8.533-8.533l8.533,8.533V482.869z"/>
			<path d="M196.269,17.069h-153.6c-23.526,0-42.667,19.14-42.667,42.667v392.533c0,23.526,19.14,42.667,42.667,42.667h153.6
				c4.719,0,8.533-3.823,8.533-8.533s-3.814-8.533-8.533-8.533h-153.6c-14.114,0-25.6-11.486-25.6-25.6v-25.6h42.667
				c4.719,0,8.533-3.823,8.533-8.533s-3.814-8.533-8.533-8.533H17.069v-51.2h42.667c4.719,0,8.533-3.823,8.533-8.533
				s-3.814-8.533-8.533-8.533H17.069v-51.2h179.2c4.719,0,8.533-3.823,8.533-8.533s-3.814-8.533-8.533-8.533h-179.2v-51.2h42.667
				c4.719,0,8.533-3.823,8.533-8.533c0-4.71-3.814-8.533-8.533-8.533H17.069v-51.2h42.667c4.719,0,8.533-3.823,8.533-8.533
				c0-4.71-3.814-8.533-8.533-8.533H17.069v-51.2h42.667c4.719,0,8.533-3.823,8.533-8.533s-3.814-8.533-8.533-8.533H17.069v-8.533
				c0-14.114,11.486-25.6,25.6-25.6h153.6c4.719,0,8.533-3.823,8.533-8.533C204.802,20.892,200.988,17.069,196.269,17.069z"/>
			<path d="M196.269,68.269c4.719,0,8.533-3.823,8.533-8.533s-3.814-8.533-8.533-8.533h-102.4c-4.719,0-8.533,3.823-8.533,8.533
				v34.133c0,4.71,3.814,8.533,8.533,8.533h102.4c4.719,0,8.533-3.823,8.533-8.533c0-4.71-3.814-8.533-8.533-8.533h-93.867V68.269
				H196.269z"/>
			<path d="M196.269,136.535c4.719,0,8.533-3.823,8.533-8.533s-3.814-8.533-8.533-8.533h-102.4c-4.719,0-8.533,3.823-8.533,8.533
				v34.133c0,4.71,3.814,8.533,8.533,8.533h102.4c4.719,0,8.533-3.823,8.533-8.533c0-4.71-3.814-8.533-8.533-8.533h-93.867v-17.067
				H196.269z"/>
			<path d="M196.269,204.802c4.719,0,8.533-3.823,8.533-8.533s-3.814-8.533-8.533-8.533h-102.4c-4.719,0-8.533,3.823-8.533,8.533
				v34.133c0,4.71,3.814,8.533,8.533,8.533h102.4c4.719,0,8.533-3.823,8.533-8.533s-3.814-8.533-8.533-8.533h-93.867v-17.067
				H196.269z"/>
			<path d="M196.269,409.602c4.719,0,8.533-3.823,8.533-8.533s-3.814-8.533-8.533-8.533h-102.4c-4.719,0-8.533,3.823-8.533,8.533
				v34.133c0,4.71,3.814,8.533,8.533,8.533h102.4c4.719,0,8.533-3.823,8.533-8.533s-3.814-8.533-8.533-8.533h-93.867v-17.067
				H196.269z"/>
			<path d="M443.735,136.535c9.412,0,17.067-7.654,17.067-17.067s-7.654-17.067-17.067-17.067c-9.412,0-17.067,7.654-17.067,17.067
				S434.323,136.535,443.735,136.535z"/>
			<path d="M443.735,273.069c9.412,0,17.067-7.654,17.067-17.067c0-9.412-7.654-17.067-17.067-17.067
				c-9.412,0-17.067,7.654-17.067,17.067C426.669,265.414,434.323,273.069,443.735,273.069z"/>
			<path d="M443.735,204.802c9.412,0,17.067-7.654,17.067-17.067s-7.654-17.067-17.067-17.067c-9.412,0-17.067,7.654-17.067,17.067
				S434.323,204.802,443.735,204.802z"/>
			<path d="M443.735,341.336c9.412,0,17.067-7.654,17.067-17.067c0-9.412-7.654-17.067-17.067-17.067
				c-9.412,0-17.067,7.654-17.067,17.067C426.669,333.681,434.323,341.336,443.735,341.336z"/>
			<path d="M443.735,409.602c9.412,0,17.067-7.654,17.067-17.067c0-9.412-7.654-17.067-17.067-17.067
				c-9.412,0-17.067,7.654-17.067,17.067C426.669,401.948,434.323,409.602,443.735,409.602z"/>
			<path d="M392.535,375.469c9.412,0,17.067-7.654,17.067-17.067s-7.654-17.067-17.067-17.067c-9.412,0-17.067,7.654-17.067,17.067
				S383.123,375.469,392.535,375.469z"/>
			<path d="M392.535,443.735c9.412,0,17.067-7.654,17.067-17.067s-7.654-17.067-17.067-17.067c-9.412,0-17.067,7.654-17.067,17.067
				S383.123,443.735,392.535,443.735z"/>
			<path d="M392.535,238.935c9.412,0,17.067-7.654,17.067-17.067c0-9.412-7.654-17.067-17.067-17.067
				c-9.412,0-17.067,7.654-17.067,17.067C375.469,231.281,383.123,238.935,392.535,238.935z"/>
			<path d="M392.535,102.402c9.412,0,17.067-7.654,17.067-17.067c0-9.412-7.654-17.067-17.067-17.067
				c-9.412,0-17.067,7.654-17.067,17.067C375.469,94.748,383.123,102.402,392.535,102.402z"/>
			<path d="M392.535,170.669c9.412,0,17.067-7.654,17.067-17.067c0-9.412-7.654-17.067-17.067-17.067
				c-9.412,0-17.067,7.654-17.067,17.067C375.469,163.014,383.123,170.669,392.535,170.669z"/>
			<path d="M392.535,307.202c9.412,0,17.067-7.654,17.067-17.067c0-9.412-7.654-17.067-17.067-17.067
				c-9.412,0-17.067,7.654-17.067,17.067C375.469,299.548,383.123,307.202,392.535,307.202z"/>
		</g>
	</g>
</g>
<g>
</g>
<g>
</g>
<g>
</g>
<g>
</g>
<g>
</g>
<g>
</g>
<g>
</g>
<g>
</g>
<g>
</g>
<g>
</g>
<g>
</g>
<g>
</g>
<g>
</g>
<g>
</g>
<g>
</g>
</svg>
