<?xml version="1.0" encoding="iso-8859-1"?>
<!-- Generator: Adobe Illustrator 19.0.0, SVG Export Plug-In . SVG Version: 6.00 Build 0)  -->
<svg version="1.1" id="Layer_1" xmlns="http://www.w3.org/2000/svg" xmlns:xlink="http://www.w3.org/1999/xlink" x="0px" y="0px"
	 viewBox="0 0 512 512" style="enable-background:new 0 0 512 512;" xml:space="preserve">
<g>
	<g>
		<g>
			<path d="M25.6,34.133c4.719,0,8.533-3.823,8.533-8.533v-8.533h34.133V25.6c0,4.71,3.814,8.533,8.533,8.533
				s8.533-3.823,8.533-8.533v-8.533h34.133V25.6c0,4.71,3.814,8.533,8.533,8.533s8.533-3.823,8.533-8.533v-8.533h34.133V25.6
				c0,4.71,3.814,8.533,8.533,8.533s8.533-3.823,8.533-8.533v-8.533h34.133V25.6c0,4.71,3.814,8.533,8.533,8.533
				s8.533-3.823,8.533-8.533v-8.533h34.133V25.6c0,4.71,3.814,8.533,8.533,8.533c4.719,0,8.533-3.823,8.533-8.533v-8.533h34.133
				V25.6c0,4.71,3.814,8.533,8.533,8.533c4.719,0,8.533-3.823,8.533-8.533v-8.533h34.133V25.6c0,4.71,3.814,8.533,8.533,8.533
				c4.719,0,8.533-3.823,8.533-8.533v-8.533h34.133V25.6c0,4.71,3.814,8.533,8.533,8.533s8.533-3.823,8.533-8.533v-8.533h34.133
				V25.6c0,4.71,3.814,8.533,8.533,8.533s8.533-3.823,8.533-8.533V8.533c0-4.71-3.814-8.533-8.533-8.533H25.6
				c-4.719,0-8.533,3.823-8.533,8.533V25.6C17.067,30.31,20.881,34.133,25.6,34.133z"/>
			<path d="M486.4,119.467c-4.719,0-8.533,3.823-8.533,8.533v110.933h-34.133v-68.267h8.533c4.719,0,8.533-3.823,8.533-8.533
				c0-4.71-3.814-8.533-8.533-8.533h-8.533V128c0-4.71-3.814-8.533-8.533-8.533s-8.533,3.823-8.533,8.533v119.467h-34.133v-76.8
				h8.533c4.719,0,8.533-3.823,8.533-8.533c0-4.71-3.814-8.533-8.533-8.533h-8.533V128c0-4.71-3.814-8.533-8.533-8.533
				c-4.719,0-8.533,3.823-8.533,8.533v128h-34.133v-85.333h8.533c4.719,0,8.533-3.823,8.533-8.533c0-4.71-3.814-8.533-8.533-8.533
				h-8.533V128c0-4.71-3.814-8.533-8.533-8.533c-4.719,0-8.533,3.823-8.533,8.533v136.533v8.533h-34.133v-102.4h8.533
				c4.719,0,8.533-3.823,8.533-8.533c0-4.71-3.814-8.533-8.533-8.533h-8.533V128c0-4.71-3.814-8.533-8.533-8.533
				c-4.719,0-8.533,3.823-8.533,8.533v153.6v17.067h-34.133v-128h8.533c4.719,0,8.533-3.823,8.533-8.533
				c0-4.71-3.814-8.533-8.533-8.533h-8.533V128c0-4.71-3.814-8.533-8.533-8.533s-8.533,3.823-8.533,8.533v179.2v25.6h-34.133
				V170.667h8.533c4.719,0,8.533-3.823,8.533-8.533c0-4.71-3.814-8.533-8.533-8.533h-8.533V128c0-4.71-3.814-8.533-8.533-8.533
				s-8.533,3.823-8.533,8.533v213.333v34.133h-34.133v-204.8h8.533c4.719,0,8.533-3.823,8.533-8.533c0-4.71-3.814-8.533-8.533-8.533
				h-8.533V128c0-4.71-3.814-8.533-8.533-8.533s-8.533,3.823-8.533,8.533v256v42.667H85.333v-256h8.533
				c4.719,0,8.533-3.823,8.533-8.533c0-4.71-3.814-8.533-8.533-8.533h-8.533V128c0-4.71-3.814-8.533-8.533-8.533
				s-8.533,3.823-8.533,8.533v307.2v59.733H34.133V170.667h8.533c4.719,0,8.533-3.823,8.533-8.533c0-4.71-3.814-8.533-8.533-8.533
				h-8.533V128c0-4.71-3.814-8.533-8.533-8.533s-8.533,3.823-8.533,8.533v375.467c0,4.71,3.814,8.533,8.533,8.533h51.2
				c4.719,0,8.533-3.823,8.533-8.533v-59.733H128c4.719,0,8.533-3.823,8.533-8.533v-42.667H179.2c4.719,0,8.533-3.823,8.533-8.533
				v-34.133H230.4c4.719,0,8.533-3.823,8.533-8.533v-25.6H281.6c4.719,0,8.533-3.823,8.533-8.533v-17.067H332.8
				c4.719,0,8.533-3.823,8.533-8.533v-8.533H384c4.719,0,8.533-3.823,8.533-8.533H435.2c4.719,0,8.533-3.823,8.533-8.533H486.4
				c4.719,0,8.533-3.823,8.533-8.533V128C494.933,123.29,491.119,119.467,486.4,119.467z"/>
			<path d="M503.467,51.2H8.533C3.814,51.2,0,55.023,0,59.733v34.133c0,4.71,3.814,8.533,8.533,8.533h494.933
				c4.719,0,8.533-3.823,8.533-8.533V59.733C512,55.023,508.186,51.2,503.467,51.2z M494.933,85.333H17.067V68.267h477.867V85.333z"
				/>
		</g>
	</g>
</g>
<g>
</g>
<g>
</g>
<g>
</g>
<g>
</g>
<g>
</g>
<g>
</g>
<g>
</g>
<g>
</g>
<g>
</g>
<g>
</g>
<g>
</g>
<g>
</g>
<g>
</g>
<g>
</g>
<g>
</g>
</svg>
