<?xml version="1.0" encoding="iso-8859-1"?>
<!-- Generator: Adobe Illustrator 19.0.0, SVG Export Plug-In . SVG Version: 6.00 Build 0)  -->
<svg version="1.1" id="Layer_1" xmlns="http://www.w3.org/2000/svg" xmlns:xlink="http://www.w3.org/1999/xlink" x="0px" y="0px"
	 viewBox="0 0 512.007 512.007" style="enable-background:new 0 0 512.007 512.007;" xml:space="preserve">
<g>
	<g>
		<g>
			<path d="M331.264,246.02c-3.661,2.97-4.233,8.337-1.263,12.006c16.486,20.386,14.916,49.775-3.661,68.352
				c-6.272,6.263-12.809,10.095-19.123,13.798c-9.19,5.393-18.705,10.965-24.713,22.98c-7.049,14.097-9.839,28.314-12.527,42.061
				c-4.122,21.026-8.021,40.892-26.897,59.767c-39.927,39.919-104.883,39.91-144.819,0l-51.2-51.2
				c-19.337-19.345-29.995-45.056-29.995-72.414c0-27.349,10.658-53.06,29.995-72.405c17.673-17.664,39.049-19.2,61.679-20.813
				c16.367-1.169,33.289-2.381,48.683-10.078c12.476-6.246,15.445-18.543,18.057-29.397c2.082-8.661,4.053-16.836,10.197-22.972
				c18.654-18.654,48.111-20.164,68.497-3.524c3.652,2.995,9.028,2.449,12.006-1.212c2.987-3.644,2.44-9.02-1.212-12.006
				c-27.204-22.204-66.492-20.207-91.366,4.676c-9.532,9.532-12.407,21.461-14.72,31.044c-2.372,9.856-3.959,15.556-9.097,18.125
				c-12.356,6.178-26.88,7.219-42.266,8.32c-23.603,1.69-50.355,3.601-72.525,25.771C12.433,279.462,0,309.465,0,341.371
				c0,31.915,12.433,61.918,34.995,84.48l51.2,51.2c23.296,23.287,53.88,34.927,84.48,34.927c30.583,0,61.184-11.639,84.471-34.927
				c22.562-22.554,27.145-45.943,31.573-68.557c2.594-13.201,5.043-25.677,11.051-37.7c3.746-7.484,9.754-11.017,18.074-15.889
				c6.912-4.053,14.746-8.644,22.562-16.461c24.772-24.764,26.854-63.957,4.855-91.153
				C340.301,243.622,334.916,243.05,331.264,246.02z"/>
			<path d="M171.998,305.915c-3.337-3.336-8.73-3.336-12.066,0l-66.057,66.057l-11.034-11.034c-3.337-3.328-8.738-3.328-12.066,0
				c-3.336,3.337-3.336,8.738,0,12.066l68.267,68.267c1.664,1.672,3.849,2.5,6.033,2.5c2.185,0,4.361-0.828,6.033-2.5
				c3.328-3.328,3.328-8.73,0-12.066l-11.034-11.034l65.698-65.698c3.337-3.337,3.337-8.73,0-12.066
				c-3.337-3.337-8.73-3.337-12.066,0l-65.698,65.698l-5.001-5.001l70.767-70.767c3.328-3.328,3.328-8.73,0-12.066
				c-3.337-3.328-8.738-3.328-12.066,0l-70.767,70.767l-5.001-5.001l66.057-66.057C175.334,314.645,175.334,309.251,171.998,305.915
				z"/>
			<path d="M511.403,48.097c-0.247-0.648-6.4-15.923-19.234-28.757C479.258,6.429,464.41,0.814,463.787,0.575
				c-2.773-1.05-5.888-0.563-8.218,1.263l-18.978,14.763l-2.816-4.224c-2.628-3.925-7.919-4.992-11.836-2.372
				c-3.917,2.611-4.975,7.91-2.364,11.836l3.507,5.265l-10.846,8.431l-4.062-6.093c-2.62-3.925-7.919-4.992-11.836-2.372
				c-3.917,2.611-4.975,7.91-2.364,11.836l4.753,7.134l-19.959,15.531c-3.217,2.5-4.216,6.912-2.398,10.556l5.786,11.563
				l-192.23,192.23c-6.11-1.809-12.561-2.816-19.251-2.816c-29.918,0-56.806,20.002-65.399,48.631
				c-1.357,4.514,1.203,9.267,5.726,10.624c4.506,1.365,9.267-1.203,10.624-5.726c6.434-21.461,26.607-36.463,49.05-36.463
				c28.228,0,51.2,22.972,51.2,51.2c0,22.443-15.002,42.615-36.471,49.05c-4.514,1.357-7.074,6.11-5.726,10.624
				c1.109,3.695,4.506,6.084,8.175,6.084c0.811,0,1.638-0.111,2.458-0.358c28.629-8.585,48.631-35.473,48.631-65.399
				c0-6.69-1.007-13.141-2.816-19.251l192.23-192.23l11.563,5.786c3.652,1.826,8.064,0.819,10.556-2.398l15.531-19.959l7.134,4.753
				c1.451,0.973,3.098,1.434,4.727,1.434c2.756,0,5.461-1.331,7.108-3.797c2.611-3.925,1.553-9.225-2.372-11.836l-6.093-4.062
				l8.431-10.846l5.265,3.507c1.451,0.973,3.098,1.434,4.727,1.434c2.756,0,5.461-1.331,7.108-3.797
				c2.611-3.925,1.553-9.225-2.372-11.836l-4.224-2.816l14.763-18.978C512.068,54.096,512.521,50.905,511.403,48.097z
				 M228.634,305.48c-5.564-8.951-13.116-16.503-22.067-22.067l23.842-23.842l22.067,22.067L228.634,305.48z M264.542,269.572
				l-22.067-22.067l22.067-22.067l22.067,22.067L264.542,269.572z M298.675,235.438l-22.067-22.067l22.067-22.067l22.067,22.067
				L298.675,235.438z M332.809,201.305l-22.067-22.067l22.067-22.067l22.067,22.067L332.809,201.305z M366.942,167.171
				l-22.067-22.067l22.067-22.067l22.067,22.067L366.942,167.171z M481.212,65.966l-7.142-4.762
				c-3.934-2.62-9.216-1.553-11.827,2.372c-2.611,3.917-1.553,9.216,2.364,11.827l6.093,4.07l-8.431,10.837l-5.265-3.507
				c-3.925-2.628-9.225-1.553-11.827,2.372c-2.611,3.917-1.553,9.216,2.364,11.827l4.224,2.816l-10.462,13.457l-10.812-5.402
				c-3.285-1.638-7.253-0.99-9.847,1.596l-19.567,19.567l-22.067-22.067l19.567-19.567c2.594-2.594,3.243-6.562,1.596-9.847
				l-5.402-10.812l13.457-10.462l2.816,4.224c1.647,2.466,4.343,3.797,7.108,3.797c1.621,0,3.268-0.461,4.719-1.434
				c3.925-2.611,4.984-7.91,2.372-11.827l-3.507-5.265l10.837-8.439l4.07,6.101c1.647,2.466,4.343,3.797,7.108,3.797
				c1.621,0,3.268-0.461,4.719-1.434c3.925-2.611,4.983-7.91,2.372-11.827l-4.762-7.142l15.898-12.365
				c4.42,2.227,11.64,6.451,18.116,12.937c6.588,6.579,11.059,14.123,13.432,18.722L481.212,65.966z"/>
		</g>
	</g>
</g>
<g>
</g>
<g>
</g>
<g>
</g>
<g>
</g>
<g>
</g>
<g>
</g>
<g>
</g>
<g>
</g>
<g>
</g>
<g>
</g>
<g>
</g>
<g>
</g>
<g>
</g>
<g>
</g>
<g>
</g>
</svg>
