<?xml version="1.0" encoding="iso-8859-1"?>
<!-- Generator: Adobe Illustrator 19.0.0, SVG Export Plug-In . SVG Version: 6.00 Build 0)  -->
<svg version="1.1" id="Layer_1" xmlns="http://www.w3.org/2000/svg" xmlns:xlink="http://www.w3.org/1999/xlink" x="0px" y="0px"
	 viewBox="0 0 512 512" style="enable-background:new 0 0 512 512;" xml:space="preserve">
<g>
	<g>
		<g>
			<path d="M247.468,332.8v-25.6h34.133v25.6c0,4.71,3.814,8.533,8.533,8.533c4.719,0,8.533-3.823,8.533-8.533V51.2h25.6
				c4.719,0,8.533-3.823,8.533-8.533c0-4.71-3.814-8.533-8.533-8.533H204.801c-4.71,0-8.533,3.823-8.533,8.533
				c0,4.71,3.823,8.533,8.533,8.533h25.6v281.6c0,4.71,3.823,8.533,8.533,8.533C243.645,341.333,247.468,337.51,247.468,332.8z
				 M247.468,51.2h34.133v34.133h-34.133V51.2z M247.468,102.4h34.133v34.133h-34.133V102.4z M247.468,153.6h34.133v34.133h-34.133
				V153.6z M247.468,204.8h34.133v34.133h-34.133V204.8z M247.468,256h34.133v34.133h-34.133V256z"/>
			<path d="M366.849,41.455C363.359,17.05,345.848,0,324.268,0H204.801c-20.719,0-36.992,15.65-42.564,41.378L131.32,243.191
				l-24.602-32.913c2.645-4.036,4.215-8.841,4.215-14.012c0-14.114-11.486-25.6-25.6-25.6c-2.645,0-5.137,0.521-7.535,1.263
				l-19.797-26.146c-2.842-3.755-8.192-4.506-11.955-1.655c-3.755,2.85-4.497,8.201-1.647,11.955l19.661,25.975
				c-2.731,4.07-4.326,8.951-4.326,14.208c0,14.114,11.486,25.6,25.6,25.6c2.714,0,5.291-0.538,7.748-1.331L196.122,358.4h-66.295
				l7.919-47.744c0.768-4.651-2.372-9.045-7.023-9.813c-4.685-0.777-9.045,2.372-9.813,7.023L94.388,467.908
				c-1.894,11.204,0.973,21.99,8.064,30.379c7.364,8.721,18.475,13.713,30.481,13.713h263.868c11.648,0,22.519-5.052,29.815-13.867
				c7.066-8.525,9.941-19.601,7.945-30.14L366.849,41.455z M85.334,204.8c-4.702,0-8.533-3.831-8.533-8.533
				c0-4.702,3.831-8.533,8.533-8.533c4.702,0,8.533,3.831,8.533,8.533C93.867,200.969,90.036,204.8,85.334,204.8z M413.475,487.253
				c-4.053,4.881-10.12,7.68-16.674,7.68H132.933c-6.972,0-13.329-2.79-17.442-7.663c-3.797-4.489-5.316-10.351-4.275-16.538
				l15.787-95.266h81.886l39.851,53.325c-0.802,1.98-1.271,4.139-1.271,6.409c0,9.412,7.654,17.067,17.067,17.067
				s17.067-7.654,17.067-17.067s-7.654-17.067-17.067-17.067c-0.785,0-1.527,0.128-2.287,0.23L145.639,262.357l33.365-217.882
				c1.792-8.235,7.893-27.409,25.796-27.409h119.467c15.104,0,23.782,13.466,25.711,26.94L399.881,358.4H252.135
				c-4.71,0-8.533,3.823-8.533,8.533s3.823,8.533,8.533,8.533h150.468l15.147,95.454
				C418.842,476.698,417.281,482.645,413.475,487.253z"/>
			<path d="M460.801,341.333c-4.719,0-8.533,3.823-8.533,8.533v8.533h-12.442c-4.719,0-8.533,3.823-8.533,8.533
				s3.814,8.533,8.533,8.533h12.442V384c0,4.71,3.814,8.533,8.533,8.533s8.533-3.823,8.533-8.533v-34.133
				C469.334,345.156,465.52,341.333,460.801,341.333z"/>
		</g>
	</g>
</g>
<g>
</g>
<g>
</g>
<g>
</g>
<g>
</g>
<g>
</g>
<g>
</g>
<g>
</g>
<g>
</g>
<g>
</g>
<g>
</g>
<g>
</g>
<g>
</g>
<g>
</g>
<g>
</g>
<g>
</g>
</svg>
