<?xml version="1.0" encoding="iso-8859-1"?>
<!-- Generator: Adobe Illustrator 19.0.0, SVG Export Plug-In . SVG Version: 6.00 Build 0)  -->
<svg version="1.1" id="Layer_1" xmlns="http://www.w3.org/2000/svg" xmlns:xlink="http://www.w3.org/1999/xlink" x="0px" y="0px"
	 viewBox="0 0 512 512" style="enable-background:new 0 0 512 512;" xml:space="preserve">
<g>
	<g>
		<g>
			<path d="M384.257,34.133h-0.085c-4.71,0-8.491,3.823-8.491,8.533c0,4.71,3.866,8.533,8.576,8.533
				c4.719,0,8.533-3.823,8.533-8.533C392.79,37.956,388.976,34.133,384.257,34.133z"/>
			<path d="M443.99,145.067h-0.085c-4.71,0-8.491,3.823-8.491,8.533c0,4.71,3.866,8.533,8.576,8.533
				c4.719,0,8.533-3.823,8.533-8.533C452.524,148.89,448.709,145.067,443.99,145.067z"/>
			<path d="M418.39,68.267h-0.085c-4.71,0-8.491,3.823-8.491,8.533s3.866,8.533,8.576,8.533c4.719,0,8.533-3.823,8.533-8.533
				S423.109,68.267,418.39,68.267z"/>
			<path d="M409.857,110.933h-0.085c-4.71,0-8.491,3.823-8.491,8.533s3.866,8.533,8.576,8.533c4.719,0,8.533-3.823,8.533-8.533
				S414.576,110.933,409.857,110.933z"/>
			<path d="M281.601,460.8h-42.667v-95.437c9.916-3.541,17.067-12.919,17.067-24.03c0-14.114-11.486-25.6-25.6-25.6
				c-3.942,0-7.646,0.973-10.982,2.577c-0.026-0.026-0.034-0.06-0.051-0.077l-53.948-53.948l71.262-77.491
				c3.183-3.473,2.961-8.866-0.512-12.058c-3.465-3.191-8.866-2.961-12.058,0.503l-76.792,83.516
				c-3.098,3.371-2.987,8.576,0.247,11.81l59.733,59.733c0.017,0.017,0.051,0.026,0.077,0.051c-1.604,3.337-2.577,7.04-2.577,10.982
				c0,3.635,0.785,7.091,2.159,10.223L96.368,454.767c-8.252,8.252-13.815,8.252-22.076-0.009l-34.261-34.125
				c-7.834-7.834-7.834-14.234,0.196-22.263l99.2-105.873c3.226-3.43,3.046-8.832-0.393-12.058
				c-3.439-3.226-8.832-3.055-12.058,0.393L27.965,386.5c-7.142,7.134-10.803,14.805-10.897,22.801
				c-0.094,8.201,3.567,16.077,10.914,23.407l34.253,34.125c7.475,7.475,15.326,11.204,23.151,11.204
				c7.774,0,15.522-3.678,22.835-10.999l110.455-103.083c1.033,0.538,2.091,1.016,3.191,1.399v103.979
				c0,4.71,3.823,8.533,8.533,8.533h51.2c4.702,0,8.533,3.831,8.533,8.533v8.533H153.601V486.4c0-4.702,3.831-8.533,8.533-8.533
				h34.133c4.71,0,8.533-3.823,8.533-8.533s-3.823-8.533-8.533-8.533h-34.133c-14.114,0-25.6,11.486-25.6,25.6v17.067
				c0,4.71,3.823,8.533,8.533,8.533h153.6c4.71,0,8.533-3.823,8.533-8.533V486.4C307.201,472.286,295.715,460.8,281.601,460.8z
				 M230.401,349.867c-4.702,0-8.533-3.831-8.533-8.533c0-4.702,3.831-8.533,8.533-8.533c4.702,0,8.533,3.831,8.533,8.533
				C238.934,346.035,235.103,349.867,230.401,349.867z"/>
			<path d="M375.724,76.8h-0.085c-4.71,0-8.491,3.823-8.491,8.533c0,4.71,3.866,8.533,8.576,8.533c4.719,0,8.533-3.823,8.533-8.533
				C384.257,80.623,380.442,76.8,375.724,76.8z"/>
			<path d="M341.59,42.667h-0.085c-4.71,0-8.491,3.823-8.491,8.533s3.866,8.533,8.576,8.533c4.719,0,8.533-3.823,8.533-8.533
				S346.309,42.667,341.59,42.667z"/>
			<path d="M298.924,102.4c0-4.71-3.814-8.533-8.533-8.533h-0.085c-4.71,0-8.491,3.823-8.491,8.533c0,4.71,3.866,8.533,8.576,8.533
				C295.109,110.933,298.924,107.11,298.924,102.4z"/>
			<path d="M401.324,204.8c0-4.71-3.814-8.533-8.533-8.533h-0.085c-4.71,0-8.491,3.823-8.491,8.533c0,4.71,3.866,8.533,8.576,8.533
				C397.509,213.333,401.324,209.51,401.324,204.8z"/>
			<path d="M358.657,179.2c4.719,0,8.533-3.823,8.533-8.533s-3.814-8.533-8.533-8.533h-0.085c-4.71,0-8.491,3.823-8.491,8.533
				S353.947,179.2,358.657,179.2z"/>
			<path d="M281.772,136.533c-4.71,0-8.491,3.823-8.491,8.533c0,4.71,3.866,8.533,8.576,8.533c4.719,0,8.533-3.823,8.533-8.533
				c0-4.71-3.814-8.533-8.533-8.533H281.772z"/>
			<path d="M452.524,102.4h-0.085c-4.71,0-8.491,3.823-8.491,8.533s3.866,8.533,8.576,8.533c4.719,0,8.533-3.823,8.533-8.533
				S457.243,102.4,452.524,102.4z"/>
			<path d="M341.548,213.333c0,4.71,3.866,8.533,8.576,8.533c4.719,0,8.533-3.823,8.533-8.533c0-4.71-3.814-8.533-8.533-8.533
				h-0.085C345.328,204.8,341.548,208.623,341.548,213.333z"/>
			<path d="M463.148,212.147c19.721-22.528,31.787-51.925,31.787-84.147c0-70.579-57.421-128-128-128
				c-32.222,0-61.619,12.066-84.147,31.787l-12.22-12.22c-3.337-3.337-8.73-3.337-12.066,0c-3.336,3.336-3.336,8.73,0,12.066
				l12.22,12.22C251,66.381,238.934,95.778,238.934,128c0,23.68,4.267,32.324,5.572,34.406c0.341,0.538,0.742,1.041,1.195,1.493
				l64,64c3.337,3.336,8.73,3.336,12.066,0c3.336-3.337,3.336-8.73,0-12.066l-62.908-62.908c-0.794-2.185-2.859-9.344-2.859-24.926
				c0-27.52,10.129-52.676,26.786-72.081l156.228,156.228c-19.405,16.649-44.561,26.786-72.081,26.786
				c-8.201,0-21.385-1.57-26.752-3.678c-3.029-1.186-6.494-0.546-8.9,1.672l-71.526,65.911c-3.464,3.191-3.686,8.593-0.486,12.058
				c1.681,1.826,3.977,2.748,6.281,2.748c2.065,0,4.139-0.742,5.777-2.261l67.925-62.592c8.781,2.202,20.685,3.208,27.682,3.208
				c32.222,0,61.619-12.066,84.147-31.787l12.22,12.22c1.664,1.664,3.849,2.5,6.033,2.5c2.185,0,4.369-0.836,6.033-2.5
				c3.337-3.337,3.337-8.73,0-12.066L463.148,212.147z M294.853,43.853c19.405-16.657,44.561-26.786,72.081-26.786
				c61.167,0,110.933,49.766,110.933,110.933c0,27.52-10.138,52.676-26.786,72.081L294.853,43.853z"/>
			<path d="M307.414,179.2c0,4.71,3.866,8.533,8.576,8.533c4.719,0,8.533-3.823,8.533-8.533s-3.814-8.533-8.533-8.533h-0.085
				C311.194,170.667,307.414,174.49,307.414,179.2z"/>
			<path d="M324.524,145.067c4.719,0,8.533-3.823,8.533-8.533S329.242,128,324.524,128h-0.085c-4.71,0-8.491,3.823-8.491,8.533
				S319.813,145.067,324.524,145.067z"/>
		</g>
	</g>
</g>
<g>
</g>
<g>
</g>
<g>
</g>
<g>
</g>
<g>
</g>
<g>
</g>
<g>
</g>
<g>
</g>
<g>
</g>
<g>
</g>
<g>
</g>
<g>
</g>
<g>
</g>
<g>
</g>
<g>
</g>
</svg>
