<?xml version="1.0" encoding="iso-8859-1"?>
<!-- Generator: Adobe Illustrator 18.1.1, SVG Export Plug-In . SVG Version: 6.00 Build 0)  -->
<svg version="1.1" id="Capa_1" xmlns="http://www.w3.org/2000/svg" xmlns:xlink="http://www.w3.org/1999/xlink" x="0px" y="0px"
	 viewBox="0 0 41.246 41.246" style="enable-background:new 0 0 41.246 41.246;" xml:space="preserve">
<g>
	<path style="fill:#010002;" d="M39.484,4.017c0-2.515-1.401-4.017-3.75-4.017H16.567c-1.128,0-3.75,0.463-3.75,4.75v20.549
		c-2.346-0.287-4.947,0.473-7.055,2.071c-1.882,1.427-3.213,3.363-3.746,5.452c-0.555,2.173-0.19,4.251,1.025,5.854
		c1.238,1.633,3.263,2.57,5.558,2.57c2.092,0,4.245-0.76,6.062-2.138c2.876-2.181,4.399-5.519,3.899-8.531l0.004-18.7
		c0.001-0.69,0.562-1.251,1.252-1.251h12.667c0.689,0,1.25,0.561,1.25,1.25l0.004,9.38c-2.363-0.318-5.011,0.441-7.148,2.062
		c-1.882,1.427-3.213,3.363-3.746,5.451c-0.555,2.174-0.19,4.252,1.025,5.854c1.237,1.632,3.262,2.568,5.558,2.568h0.001
		c2.091,0,4.244-0.761,6.062-2.138c2.737-2.076,4.248-5.177,3.951-8.104L39.484,4.017z M37.484,18.717l-0.044,8.28l0.006,0.114
		c0.243,2.215-1,4.707-3.166,6.35c-1.473,1.116-3.195,1.731-4.854,1.731h-0.001c-1.688,0-3.097-0.632-3.964-1.777
		c-0.84-1.106-1.082-2.58-0.682-4.149c0.423-1.651,1.494-3.197,3.018-4.354c2.029-1.54,4.63-2.104,6.635-1.461l1.307,0.419
		l-0.005-11.994c0-1.792-1.458-3.25-3.25-3.25H19.817c-1.792,0-3.251,1.458-3.252,3.25l-0.004,18.787l0.016,0.177
		c0.407,2.269-0.848,4.949-3.124,6.676c-1.472,1.115-3.195,1.73-4.853,1.73c-1.688,0-3.096-0.631-3.964-1.777
		c-0.841-1.106-1.083-2.58-0.683-4.149c0.423-1.652,1.494-3.198,3.018-4.354c1.467-1.113,3.187-1.726,4.843-1.726
		c0.602,0,1.179,0.082,1.712,0.244l1.291,0.392V4.752c0-2.75,1.271-2.75,1.75-2.75h19.167c0.909,0,1.75,0.244,1.75,2.017V18.717z"/>
</g>
<g>
</g>
<g>
</g>
<g>
</g>
<g>
</g>
<g>
</g>
<g>
</g>
<g>
</g>
<g>
</g>
<g>
</g>
<g>
</g>
<g>
</g>
<g>
</g>
<g>
</g>
<g>
</g>
<g>
</g>
</svg>
