<?xml version="1.0" encoding="iso-8859-1"?>
<!-- Generator: Adobe Illustrator 19.0.0, SVG Export Plug-In . SVG Version: 6.00 Build 0)  -->
<svg version="1.1" id="Layer_1" xmlns="http://www.w3.org/2000/svg" xmlns:xlink="http://www.w3.org/1999/xlink" x="0px" y="0px"
	 viewBox="0 0 512 512" style="enable-background:new 0 0 512 512;" xml:space="preserve">
<g>
	<g>
		<path d="M401.067,170.667c-41.975,0-80.674-30.908-111.915-89.37C262.357,31.147,210.415,0,153.6,0C68.907,0,0,68.907,0,153.6
			v179.2c0,4.71,3.814,8.533,8.533,8.533H51.2v76.8c0,4.71,3.814,8.533,8.533,8.533h34.133c4.719,0,8.533-3.823,8.533-8.533v-76.8
			h17.067v76.8c0,4.71,3.814,8.533,8.533,8.533h34.133c4.719,0,8.533-3.823,8.533-8.533v-76.8h17.067v76.8
			c0,4.71,3.814,8.533,8.533,8.533H230.4c4.719,0,8.533-3.823,8.533-8.533v-76.8h34.133v153.6h-51.2v-42.667
			c0-4.71-3.814-8.533-8.533-8.533c-4.719,0-8.533,3.823-8.533,8.533v42.667h-51.2v-42.667c0-4.71-3.814-8.533-8.533-8.533
			s-8.533,3.823-8.533,8.533v42.667h-51.2v-42.667c0-4.71-3.814-8.533-8.533-8.533s-8.533,3.823-8.533,8.533v42.667h-51.2v-128
			c0-4.71-3.814-8.533-8.533-8.533S0,362.223,0,366.933v136.533C0,508.177,3.814,512,8.533,512h494.933
			c4.719,0,8.533-3.823,8.533-8.533V281.6C512,220.433,462.234,170.667,401.067,170.667z M85.333,409.6H68.267v-68.267h17.067V409.6
			z M153.6,409.6h-17.067v-68.267H153.6V409.6z M221.867,409.6H204.8v-68.267h17.067V409.6z M494.933,494.933h-68.267v-42.667
			c0-4.71-3.814-8.533-8.533-8.533s-8.533,3.823-8.533,8.533v42.667h-51.2v-42.667c0-4.71-3.814-8.533-8.533-8.533
			s-8.533,3.823-8.533,8.533v42.667h-51.2v-153.6h34.133v76.8c0,4.71,3.814,8.533,8.533,8.533h34.133
			c4.719,0,8.533-3.823,8.533-8.533v-76.8h17.067v76.8c0,4.71,3.814,8.533,8.533,8.533H435.2c4.719,0,8.533-3.823,8.533-8.533v-76.8
			h25.6c4.719,0,8.533-3.823,8.533-8.533c0-4.71-3.814-8.533-8.533-8.533H17.067V153.6c0-75.281,61.252-136.533,136.533-136.533
			c50.509,0,96.674,27.699,120.499,72.277c43.46,81.323,93.03,98.389,126.968,98.389c51.755,0,93.867,42.112,93.867,93.867V494.933z
			 M341.333,409.6v-68.267H358.4V409.6H341.333z M409.6,409.6v-68.267h17.067V409.6H409.6z"/>
	</g>
</g>
<g>
</g>
<g>
</g>
<g>
</g>
<g>
</g>
<g>
</g>
<g>
</g>
<g>
</g>
<g>
</g>
<g>
</g>
<g>
</g>
<g>
</g>
<g>
</g>
<g>
</g>
<g>
</g>
<g>
</g>
</svg>
