<?xml version="1.0" encoding="iso-8859-1"?>
<!-- Generator: Adobe Illustrator 19.0.0, SVG Export Plug-In . SVG Version: 6.00 Build 0)  -->
<svg version="1.1" id="Layer_1" xmlns="http://www.w3.org/2000/svg" xmlns:xlink="http://www.w3.org/1999/xlink" x="0px" y="0px"
	 viewBox="0 0 512.003 512.003" style="enable-background:new 0 0 512.003 512.003;" xml:space="preserve">
<g>
	<g>
		<g>
			<path d="M126.644,190.065c1.357,0.794,2.85,1.169,4.318,1.169c2.918,0,5.769-1.502,7.364-4.207
				c11.785-20.07,28.621-36.915,48.7-48.708c4.062-2.389,5.419-7.62,3.029-11.682c-2.389-4.07-7.612-5.41-11.682-3.038
				c-22.571,13.278-41.506,32.213-54.767,54.784C121.226,182.445,122.583,187.676,126.644,190.065z"/>
			<path d="M169.781,108.896c4.07-2.381,5.427-7.612,3.038-11.682c-2.389-4.062-7.612-5.41-11.682-3.029
				c-27.588,16.213-50.739,39.356-66.953,66.944c-2.389,4.07-1.032,9.301,3.038,11.691c1.357,0.794,2.85,1.169,4.309,1.169
				c2.927,0,5.777-1.502,7.373-4.207C123.641,144.694,144.692,123.642,169.781,108.896z"/>
			<path d="M469.864,115.254c-2.586-3.934-7.876-5.026-11.819-2.432c-3.934,2.594-5.018,7.893-2.423,11.827
				c25.719,39.006,39.313,84.429,39.313,131.354c0,131.746-107.187,238.933-238.933,238.933S17.068,387.749,17.068,256.003
				c0-131.755,107.187-238.933,238.933-238.933c66.074,0,129.109,27.281,173.875,74.914l-18.176,49.946l-8.013-2.91
				c-4.42-1.63-9.327,0.666-10.94,5.094l-17.51,48.111c-0.776,2.125-0.674,4.471,0.282,6.528c0.956,2.048,2.688,3.635,4.813,4.412
				l32.077,11.674c0.964,0.35,1.946,0.521,2.918,0.521c3.482,0,6.758-2.159,8.013-5.615l17.519-48.119
				c0.777-2.125,0.674-4.471-0.282-6.519c-0.956-2.057-2.688-3.644-4.821-4.412l-8.021-2.927l49.613-136.32
				c1.613-4.42-0.666-9.318-5.094-10.931c-4.412-1.604-9.327,0.666-10.931,5.103l-24.934,68.489
				C388.857,26.857,323.893,0.003,256.001,0.003c-141.158,0-256,114.842-256,256s114.842,256,256,256s256-114.842,256-256
				C512.001,205.724,497.426,157.059,469.864,115.254z M410.224,195.885l-16.034-5.837l11.674-32.077l16.043,5.837L410.224,195.885z
				"/>
			<path d="M346.549,418.989c1.468,0,2.961-0.375,4.318-1.178c27.588-16.205,50.739-39.356,66.953-66.944
				c2.389-4.07,1.024-9.301-3.038-11.682c-4.07-2.381-9.293-1.024-11.682,3.029c-14.737,25.088-35.797,46.14-60.885,60.885
				c-4.062,2.389-5.419,7.612-3.029,11.682C340.78,417.487,343.63,418.989,346.549,418.989z"/>
			<path d="M329.311,389.566c1.468,0,2.953-0.375,4.318-1.169c22.571-13.269,41.506-32.213,54.767-54.784
				c2.381-4.062,1.024-9.293-3.038-11.674s-9.293-1.033-11.682,3.038c-11.785,20.062-28.629,36.907-48.7,48.7
				c-4.062,2.389-5.419,7.62-3.038,11.682C323.534,388.064,326.384,389.566,329.311,389.566z"/>
			<path d="M256.001,273.069c9.412,0,17.067-7.654,17.067-17.067c0-9.412-7.654-17.067-17.067-17.067
				c-9.412,0-17.067,7.654-17.067,17.067C238.935,265.415,246.589,273.069,256.001,273.069z"/>
			<path d="M256.001,324.269c37.641,0,68.267-30.626,68.267-68.267c0-37.649-30.626-68.267-68.267-68.267
				c-37.641,0-68.267,30.618-68.267,68.267C187.735,293.643,218.361,324.269,256.001,324.269z M256.001,204.803
				c28.237,0,51.2,22.963,51.2,51.2c0,28.228-22.963,51.2-51.2,51.2s-51.2-22.972-51.2-51.2
				C204.801,227.766,227.764,204.803,256.001,204.803z"/>
		</g>
	</g>
</g>
<g>
</g>
<g>
</g>
<g>
</g>
<g>
</g>
<g>
</g>
<g>
</g>
<g>
</g>
<g>
</g>
<g>
</g>
<g>
</g>
<g>
</g>
<g>
</g>
<g>
</g>
<g>
</g>
<g>
</g>
</svg>
