<?xml version="1.0" encoding="iso-8859-1"?>
<!-- Generator: Adobe Illustrator 19.0.0, SVG Export Plug-In . SVG Version: 6.00 Build 0)  -->
<svg version="1.1" id="Layer_1" xmlns="http://www.w3.org/2000/svg" xmlns:xlink="http://www.w3.org/1999/xlink" x="0px" y="0px"
	 viewBox="0 0 512 512" style="enable-background:new 0 0 512 512;" xml:space="preserve">
<g>
	<g>
		<g>
			<path d="M119.467,392.533c-14.114,0-25.6,11.486-25.6,25.6s11.486,25.6,25.6,25.6s25.6-11.486,25.6-25.6
				S133.581,392.533,119.467,392.533z M119.467,426.667c-4.702,0-8.533-3.831-8.533-8.533s3.831-8.533,8.533-8.533
				s8.533,3.831,8.533,8.533S124.169,426.667,119.467,426.667z"/>
			<path d="M128,204.8h-8.533v-128c0-4.71-3.823-8.533-8.533-8.533S102.4,72.09,102.4,76.8v136.533c0,4.71,3.823,8.533,8.533,8.533
				H128c4.702,0,8.533,3.831,8.533,8.533c0,4.702-3.831,8.533-8.533,8.533H93.867c-4.702,0-8.533-3.831-8.533-8.533
				c0-2.304,0.896-4.454,2.534-6.067c3.345-3.319,3.379-8.721,0.068-12.066c-3.32-3.354-8.721-3.388-12.066-0.068
				c-4.907,4.847-7.603,11.307-7.603,18.202c0,14.114,11.486,25.6,25.6,25.6H128c14.114,0,25.6-11.486,25.6-25.6
				S142.114,204.8,128,204.8z"/>
			<path d="M256,392.533c-14.114,0-25.6,11.486-25.6,25.6s11.486,25.6,25.6,25.6s25.6-11.486,25.6-25.6S270.114,392.533,256,392.533
				z M256,426.667c-4.702,0-8.533-3.831-8.533-8.533s3.831-8.533,8.533-8.533c4.702,0,8.533,3.831,8.533,8.533
				S260.702,426.667,256,426.667z"/>
			<path d="M128,349.867V281.6c0-4.71-3.823-8.533-8.533-8.533s-8.533,3.823-8.533,8.533v68.267c0,4.71,3.823,8.533,8.533,8.533
				S128,354.577,128,349.867z"/>
			<path d="M418.133,238.933H409.6V76.8c0-4.71-3.814-8.533-8.533-8.533c-4.719,0-8.533,3.823-8.533,8.533v170.667
				c0,4.71,3.814,8.533,8.533,8.533h17.067c4.71,0,8.533,3.831,8.533,8.533c0,4.702-3.823,8.533-8.533,8.533H384
				c-4.71,0-8.533-3.831-8.533-8.533c0-2.304,0.896-4.454,2.534-6.067c3.345-3.319,3.379-8.721,0.068-12.066
				c-3.311-3.354-8.73-3.388-12.066-0.068c-4.907,4.847-7.603,11.307-7.603,18.202c0,14.114,11.486,25.6,25.6,25.6h34.133
				c14.114,0,25.6-11.486,25.6-25.6S432.247,238.933,418.133,238.933z"/>
			<path d="M469.333,0H42.667C19.14,0,0,19.14,0,42.667v426.667C0,492.86,19.14,512,42.667,512h426.667
				C492.86,512,512,492.86,512,469.333V42.667C512,19.14,492.86,0,469.333,0z M494.933,469.333c0,14.114-11.486,25.6-25.6,25.6
				H42.667c-14.114,0-25.6-11.486-25.6-25.6V42.667c0-14.114,11.486-25.6,25.6-25.6h426.667c14.114,0,25.6,11.486,25.6,25.6V469.333
				z"/>
			<path d="M264.533,349.867v-153.6c0-4.71-3.823-8.533-8.533-8.533s-8.533,3.823-8.533,8.533v153.6c0,4.71,3.823,8.533,8.533,8.533
				S264.533,354.577,264.533,349.867z"/>
			<path d="M409.6,349.867v-34.133c0-4.71-3.814-8.533-8.533-8.533c-4.719,0-8.533,3.823-8.533,8.533v34.133
				c0,4.71,3.814,8.533,8.533,8.533C405.786,358.4,409.6,354.577,409.6,349.867z"/>
			<path d="M401.067,392.533c-14.114,0-25.6,11.486-25.6,25.6s11.486,25.6,25.6,25.6c14.114,0,25.6-11.486,25.6-25.6
				S415.181,392.533,401.067,392.533z M401.067,426.667c-4.71,0-8.533-3.831-8.533-8.533s3.823-8.533,8.533-8.533
				s8.533,3.831,8.533,8.533S405.777,426.667,401.067,426.667z"/>
			<path d="M273.067,119.467h-8.533V76.8c0-4.71-3.823-8.533-8.533-8.533s-8.533,3.823-8.533,8.533V128
				c0,4.71,3.823,8.533,8.533,8.533h17.067c4.71,0,8.533,3.831,8.533,8.533c0,4.702-3.823,8.533-8.533,8.533h-34.133
				c-4.702,0-8.533-3.831-8.533-8.533c0-2.304,0.896-4.454,2.534-6.067c3.345-3.319,3.379-8.721,0.068-12.066
				c-3.319-3.354-8.721-3.388-12.066-0.068c-4.907,4.847-7.603,11.307-7.603,18.202c0,14.114,11.486,25.6,25.6,25.6h34.133
				c14.114,0,25.6-11.486,25.6-25.6S287.181,119.467,273.067,119.467z"/>
		</g>
	</g>
</g>
<g>
</g>
<g>
</g>
<g>
</g>
<g>
</g>
<g>
</g>
<g>
</g>
<g>
</g>
<g>
</g>
<g>
</g>
<g>
</g>
<g>
</g>
<g>
</g>
<g>
</g>
<g>
</g>
<g>
</g>
</svg>
