<?xml version="1.0" encoding="iso-8859-1"?>
<!-- Generator: Adobe Illustrator 19.0.0, SVG Export Plug-In . SVG Version: 6.00 Build 0)  -->
<svg version="1.1" id="Layer_1" xmlns="http://www.w3.org/2000/svg" xmlns:xlink="http://www.w3.org/1999/xlink" x="0px" y="0px"
	 viewBox="0 0 512.009 512.009" style="enable-background:new 0 0 512.009 512.009;" xml:space="preserve">
<g>
	<g>
		<g>
			<path d="M121.404,104.9c1.041-4.591-1.835-9.165-6.434-10.206c-5.803-1.314-11.767,0.333-15.838,4.403
				c-4.105,4.096-5.769,10.035-4.42,15.872c0.905,3.968,4.292,6.699,8.158,6.699c0.614,0,1.237-0.06,1.86-0.213
				c4.599-1.05,7.279-5.547,6.221-10.146c0.017,0.008,0.094,0,0.23,0.026C115.763,112.375,120.346,109.5,121.404,104.9z"/>
			<path d="M256.009,68.267C152.491,68.267,68.275,152.482,68.275,256s84.215,187.733,187.733,187.733S443.742,359.518,443.742,256
				S359.526,68.267,256.009,68.267z M256.009,426.667c-94.106,0-170.667-76.561-170.667-170.667S161.903,85.333,256.009,85.333
				S426.675,161.894,426.675,256S350.114,426.667,256.009,426.667z"/>
			<path d="M256.247,460.877c-0.017-0.009-0.068-0.068-0.137-0.171c-2.509-3.985-7.765-5.18-11.776-2.68
				c-3.985,2.509-5.188,7.782-2.679,11.768c3.191,5.06,8.533,8.081,14.251,8.081c0.043-0.009,0.077-0.009,0.119,0
				c5.803,0,11.145-3.029,14.31-8.124c2.492-3.994,1.476-9.182-2.534-11.674C263.791,455.578,258.739,456.883,256.247,460.877z"/>
			<path d="M104.892,390.605c-4.599-1.033-9.165,1.843-10.206,6.443c-1.323,5.845,0.341,11.767,4.403,15.812
				c3.157,3.183,7.415,4.898,11.878,4.898c1.323,0,2.662-0.154,4.011-0.461c4.591-1.058,7.535-5.444,6.477-10.035
				c-1.058-4.591-5.538-7.253-10.146-6.204c0-0.026-0.009-0.119,0.026-0.247C112.375,396.22,109.491,391.646,104.892,390.605z"/>
			<path d="M376.704,87.04c6.434-6.434,14.993-9.975,24.107-9.975h0.008c9.114,0,17.69,3.55,24.141,10.001
				c13.303,13.295,13.303,34.944,0.009,48.265c-3.328,3.345-3.328,8.738,0.017,12.066c1.656,1.672,3.84,2.5,6.025,2.5
				c2.185,0,4.369-0.836,6.042-2.509c19.942-19.977,19.934-52.454-0.026-72.388c-9.668-9.677-22.528-15.002-36.198-15.002h-0.009
				c-13.679,0-26.53,5.316-36.181,14.976c-3.328,3.328-3.328,8.738,0,12.066C367.974,90.368,373.376,90.368,376.704,87.04z"/>
			<path d="M262.042,198.767c-3.337-3.337-8.73-3.337-12.066,0c-3.336,3.337-3.336,8.73,0,12.066l51.2,51.2
				c1.664,1.664,3.849,2.5,6.033,2.5c2.185,0,4.369-0.836,6.033-2.5c3.337-3.337,3.337-8.73,0-12.066L262.042,198.767z"/>
			<path d="M296.175,181.7c-3.337-3.336-8.73-3.336-12.066,0c-3.337,3.337-3.337,8.73,0,12.066l34.133,34.133
				c1.664,1.664,3.849,2.5,6.033,2.5c2.185,0,4.369-0.836,6.033-2.5c3.337-3.336,3.337-8.73,0-12.066L296.175,181.7z"/>
			<path d="M256.009,119.467c-75.281,0-136.533,61.252-136.533,136.533s61.252,136.533,136.533,136.533S392.542,331.281,392.542,256
				S331.29,119.467,256.009,119.467z M256.009,375.467c-65.877,0-119.467-53.589-119.467-119.467s53.589-119.467,119.467-119.467
				S375.475,190.123,375.475,256S321.886,375.467,256.009,375.467z"/>
			<path d="M400.811,400.674c-4.582-1.024-9.165,1.835-10.214,6.443c-1.033,4.599,1.852,9.165,6.443,10.206
				c1.331,0.29,2.654,0.444,3.959,0.444c4.48,0,8.73-1.707,11.853-4.838c4.122-4.096,5.794-10.035,4.437-15.898
				c-1.067-4.591-5.495-7.552-10.027-6.485c-4.599,1.058-7.27,5.555-6.212,10.146C401.033,400.7,400.939,400.708,400.811,400.674z"
				/>
			<path d="M298.658,452.284c-4.719,0-8.533,3.823-8.533,8.533c0,18.816-15.317,34.116-34.133,34.125h-0.008
				c-18.807,0-34.116-15.309-34.125-34.133c0-4.71-3.823-8.533-8.533-8.533c-4.719,0-8.533,3.831-8.533,8.542
				c0.009,28.228,22.972,51.191,51.191,51.191h0.008c28.237-0.008,51.2-22.972,51.2-51.191
				C307.192,456.107,303.377,452.284,298.658,452.284z"/>
			<path d="M424.96,364.638c-3.336,3.328-3.336,8.73,0,12.066c6.443,6.434,9.984,15.002,9.984,24.115
				c0,9.122-3.55,17.69-10.001,24.141c-13.304,13.312-34.953,13.303-48.265,0.009c-3.336-3.328-8.747-3.337-12.075,0.008
				c-3.328,3.328-3.328,8.738,0.009,12.066c9.984,9.975,23.1,14.959,36.207,14.959c13.107,0,26.214-4.992,36.19-14.976
				c9.677-9.668,15.002-22.528,15.002-36.198c0.008-13.679-5.316-26.53-14.985-36.19C433.69,361.301,428.288,361.301,424.96,364.638
				z"/>
			<path d="M460.834,204.809h-0.009c-4.719,0-8.533,3.823-8.533,8.533c0,4.719,3.823,8.533,8.533,8.533h0.009
				c18.799,0,34.091,15.317,34.099,34.142c0.009,18.807-15.309,34.125-34.133,34.133c-4.71,0-8.525,3.823-8.525,8.533
				c0,4.719,3.823,8.533,8.533,8.533h0.008c28.237-0.017,51.191-22.989,51.183-51.209
				C511.992,227.78,489.045,204.809,460.834,204.809z"/>
			<path d="M135.305,424.96c-13.295,13.295-34.944,13.295-48.265-0.017c-6.443-6.443-9.993-15.01-9.993-24.124
				c0-9.122,3.55-17.69,9.993-24.132c3.336-3.337,3.336-8.73,0-12.066c-3.328-3.337-8.73-3.337-12.066,0
				c-9.668,9.66-14.993,22.519-14.993,36.19c0,13.679,5.325,26.539,14.993,36.198c9.984,9.984,23.1,14.984,36.207,14.984
				c13.107,0,26.223-4.992,36.198-14.967c3.328-3.337,3.328-8.738,0-12.066C144.043,421.623,138.641,421.623,135.305,424.96z"/>
			<path d="M458.027,267.674c1.613,2.569,4.386,3.985,7.219,3.985c1.562,0,3.132-0.427,4.548-1.314
				c5.069-3.2,8.09-8.567,8.073-14.285c0.034-5.828-3.004-11.213-8.115-14.396c-4.036-2.5-9.199-1.468-11.682,2.534
				c-2.492,4.002-1.195,9.062,2.816,11.546c-0.017,0.017-0.077,0.085-0.196,0.154C456.704,258.415,455.509,263.68,458.027,267.674z"
				/>
			<path d="M51.302,256.111c3.985-2.509,5.188-7.774,2.679-11.767c-2.509-3.985-7.782-5.205-11.767-2.68
				c-5.069,3.191-8.098,8.559-8.081,14.302c-0.017,5.811,3.012,11.179,8.09,14.362c1.468,0.922,3.089,1.365,4.676,1.365
				c2.756,0,5.419-1.331,7.006-3.866c2.5-3.994,1.212-9.062-2.782-11.571C51.132,256.239,51.191,256.179,51.302,256.111z"/>
			<path d="M407.108,121.404c0.631,0.145,1.263,0.205,1.894,0.205c3.9,0,7.415-2.679,8.311-6.647
				c1.331-5.854-0.341-11.785-4.386-15.795c-4.105-4.147-10.027-5.828-15.932-4.437c-4.582,1.067-7.526,5.461-6.46,10.044
				c1.075,4.591,5.547,7.245,10.155,6.178c0,0.026,0.009,0.111-0.026,0.247C399.625,115.789,402.509,120.363,407.108,121.404z"/>
			<path d="M213.342,59.733c4.719,0,8.533-3.823,8.533-8.533c0-18.825,15.309-34.133,34.133-34.133
				c18.825,0,34.133,15.309,34.133,34.133c0,4.71,3.814,8.533,8.533,8.533s8.533-3.823,8.533-8.533c0-28.237-22.963-51.2-51.2-51.2
				s-51.2,22.963-51.2,51.2C204.809,55.91,208.623,59.733,213.342,59.733z"/>
			<path d="M59.725,213.333c0-4.719-3.814-8.533-8.533-8.533c-13.67,0-26.522,5.325-36.19,14.993
				C5.325,229.47,0,242.321,0.009,255.992C0,269.67,5.325,282.522,15.002,292.198c9.668,9.677,22.519,15.002,36.19,15.002
				c4.719,0,8.533-3.823,8.533-8.533c0-4.719-3.814-8.533-8.533-8.533c-9.105,0-17.681-3.55-24.124-10.001
				c-6.451-6.451-9.993-15.019-9.993-24.141c0-9.114,3.541-17.681,9.993-24.132c6.443-6.443,15.019-9.992,24.124-9.992
				C55.91,221.867,59.725,218.044,59.725,213.333z"/>
			<path d="M255.761,51.132c0.017,0.009,0.06,0.068,0.128,0.162c1.63,2.586,4.395,3.994,7.236,3.994
				c1.553,0,3.123-0.418,4.531-1.306c3.994-2.509,5.197-7.774,2.688-11.767c-3.183-5.06-8.542-8.081-14.336-8.081
				c-5.794,0-11.153,3.021-14.336,8.081c-2.509,3.994-1.493,9.173,2.5,11.682C248.175,56.414,253.244,55.125,255.761,51.132z"/>
			<path d="M81.015,149.879c2.185,0,4.369-0.828,6.033-2.492c3.337-3.337,3.337-8.738,0-12.075
				c-6.443-6.443-9.992-15.01-9.992-24.132c0-9.114,3.55-17.681,10.001-24.132c6.451-6.451,15.019-10.001,24.132-10.001
				c9.122,0,17.698,3.55,24.132,9.993c3.337,3.336,8.738,3.336,12.066,0c3.337-3.328,3.337-8.73,0-12.066
				c-9.66-9.668-22.519-14.993-36.198-14.993c-13.67,0-26.53,5.325-36.198,15.002c-9.677,9.66-15.002,22.519-15.002,36.198
				c0,13.679,5.325,26.539,14.993,36.207C76.646,149.052,78.831,149.879,81.015,149.879z"/>
		</g>
	</g>
</g>
<g>
</g>
<g>
</g>
<g>
</g>
<g>
</g>
<g>
</g>
<g>
</g>
<g>
</g>
<g>
</g>
<g>
</g>
<g>
</g>
<g>
</g>
<g>
</g>
<g>
</g>
<g>
</g>
<g>
</g>
</svg>
