<?xml version="1.0" encoding="iso-8859-1"?>
<!-- Generator: Adobe Illustrator 19.0.0, SVG Export Plug-In . SVG Version: 6.00 Build 0)  -->
<svg version="1.1" id="Layer_1" xmlns="http://www.w3.org/2000/svg" xmlns:xlink="http://www.w3.org/1999/xlink" x="0px" y="0px"
	 viewBox="0 0 512.005 512.005" style="enable-background:new 0 0 512.005 512.005;" xml:space="preserve">
<g>
	<g>
		<g>
			<path d="M153.602,273.068c2.185,0,4.369-0.836,6.033-2.5l6.767-6.767l11.571,11.571c1.664,1.664,3.849,2.492,6.033,2.492
				c2.176,0,4.361-0.828,6.033-2.492c3.328-3.337,3.328-8.738,0-12.075l-11.571-11.563l6.767-6.767c3.336-3.337,3.336-8.73,0-12.066
				c-3.337-3.337-8.73-3.337-12.066,0l-25.6,25.6c-3.337,3.337-3.337,8.73,0,12.066
				C149.233,272.232,151.417,273.068,153.602,273.068z"/>
			<path d="M204.802,221.868c2.185,0,4.369-0.836,6.033-2.5l6.767-6.767l11.571,11.563c1.664,1.673,3.849,2.5,6.033,2.5
				c2.176,0,4.361-0.828,6.033-2.5c3.328-3.328,3.328-8.73,0-12.066l-11.571-11.563l6.767-6.767c3.336-3.337,3.336-8.73,0-12.066
				c-3.337-3.336-8.73-3.336-12.066,0l-25.6,25.6c-3.337,3.337-3.337,8.73,0,12.066
				C200.433,221.032,202.617,221.868,204.802,221.868z"/>
			<path d="M102.402,324.268c2.185,0,4.369-0.836,6.033-2.5l6.767-6.767l11.571,11.563c1.664,1.673,3.849,2.5,6.033,2.5
				c2.176,0,4.361-0.828,6.033-2.5c3.328-3.328,3.328-8.73,0-12.066l-11.571-11.563l6.767-6.767c3.337-3.337,3.337-8.73,0-12.066
				s-8.73-3.337-12.066,0l-25.6,25.6c-3.337,3.337-3.337,8.73,0,12.066C98.033,323.432,100.217,324.268,102.402,324.268z"/>
			<path d="M511.464,176.207C485.045,105.764,406.239,26.959,335.797,0.539c-2.901-1.075-6.161-0.512-8.525,1.493
				c-2.355,2.014-3.448,5.137-2.833,8.175c15.232,76.186,3.046,145.169-31.804,180.028l-253.5,253.5H8.535
				c-3.447,0-6.562,2.082-7.885,5.265c-1.323,3.191-0.589,6.861,1.852,9.301l51.2,51.2c1.63,1.63,3.814,2.5,6.033,2.5
				c1.101,0,2.21-0.213,3.268-0.648c3.183-1.323,5.265-4.437,5.265-7.885v-30.601l68.122-68.122
				c-1.169,19.038,5.547,38.536,20.139,53.129c13.039,13.039,30.404,20.207,48.913,20.207c18.236,0,35.302-7.023,48.06-19.78
				l119.467-119.467c26.615-26.615,26.428-70.11-0.427-96.973c-14.046-14.037-33.459-21.342-53.188-20.079l2.415-2.415
				c26.325-26.317,68.804-42.035,113.63-42.035c21.333,0,43.409,3.379,65.621,10.044c3.098,0.93,6.468,0.017,8.687-2.347
				C511.916,182.658,512.599,179.244,511.464,176.207z M256.002,251.001l56.201,56.201l-39.134,39.134l-56.201-56.201
				L256.002,251.001z M204.802,302.201l56.201,56.201l-39.134,39.134l-56.201-56.201L204.802,302.201z M53.702,463.302
				c-1.596,1.596-2.5,3.772-2.5,6.033v13.534l-22.067-22.067h13.534c2.261,0,4.437-0.905,6.033-2.5l104.9-104.9l5.572,5.572
				c-1.118,0.418-2.176,1.024-3.072,1.92l-0.06,0.068L53.702,463.302z M323.628,238.722c13.952,0,27.034,5.402,36.847,15.206
				c20.198,20.207,20.386,52.881,0.427,72.841L241.435,446.235c-9.532,9.532-22.323,14.78-35.994,14.78
				c-13.952,0-27.034-5.393-36.847-15.206c-20.198-20.207-20.386-52.881-0.427-72.841c0.904-0.896,1.51-1.954,1.929-3.072
				l39.706,39.706l-11.034,11.034c-3.337,3.337-3.337,8.73,0,12.066c1.664,1.664,3.849,2.5,6.033,2.5c2.185,0,4.369-0.836,6.033-2.5
				l11.034-11.034l6.767,6.767c1.664,1.664,3.849,2.5,6.033,2.5c2.185,0,4.369-0.836,6.033-2.5c3.336-3.337,3.336-8.73,0-12.066
				l-6.767-6.767l39.134-39.134l6.767,6.767c1.664,1.664,3.849,2.5,6.033,2.5c2.185,0,4.369-0.836,6.033-2.5
				c3.336-3.337,3.336-8.73,0-12.066l-6.767-6.767l39.134-39.134l6.767,6.767c1.664,1.664,3.849,2.5,6.033,2.5
				c2.185,0,4.369-0.836,6.033-2.5c3.337-3.336,3.337-8.73,0-12.066l-6.767-6.767l11.034-11.034c3.337-3.337,3.337-8.73,0-12.066
				c-3.336-3.337-8.73-3.337-12.066,0l-11.034,11.034l-39.706-39.706c1.118-0.418,2.176-1.033,3.072-1.929l0.06-0.06
				C297.218,243.944,309.975,238.722,323.628,238.722z M309.702,207.302l-34.133,34.133c-0.896,0.896-1.51,1.954-1.929,3.072
				l-5.572-5.572l36.634-36.634c36.924-36.924,51.226-103.356,39.262-179.789c57.259,26.897,117.299,86.665,144.785,143.974
				C419.15,150.53,350.03,166.965,309.702,207.302z"/>
		</g>
	</g>
</g>
<g>
</g>
<g>
</g>
<g>
</g>
<g>
</g>
<g>
</g>
<g>
</g>
<g>
</g>
<g>
</g>
<g>
</g>
<g>
</g>
<g>
</g>
<g>
</g>
<g>
</g>
<g>
</g>
<g>
</g>
</svg>
