<?xml version="1.0" encoding="iso-8859-1"?>
<!-- Generator: Adobe Illustrator 19.0.0, SVG Export Plug-In . SVG Version: 6.00 Build 0)  -->
<svg version="1.1" id="Layer_1" xmlns="http://www.w3.org/2000/svg" xmlns:xlink="http://www.w3.org/1999/xlink" x="0px" y="0px"
	 viewBox="0 0 512 512" style="enable-background:new 0 0 512 512;" xml:space="preserve">
<g>
	<g>
		<g>
			<path d="M452.523,196.267h-0.094c-4.71,0-8.482,3.823-8.482,8.533c0,4.71,3.857,8.533,8.576,8.533
				c4.71,0,8.533-3.823,8.533-8.533C461.056,200.09,457.233,196.267,452.523,196.267z"/>
			<path d="M435.456,25.6h-0.094c-4.71,0-8.482,3.823-8.482,8.533c0,4.71,3.857,8.533,8.576,8.533c4.71,0,8.533-3.823,8.533-8.533
				C443.989,29.423,440.166,25.6,435.456,25.6z"/>
			<path d="M247.723,196.267h-0.085c-4.719,0-8.491,3.823-8.491,8.533c0,4.71,3.857,8.533,8.576,8.533
				c4.71,0,8.533-3.823,8.533-8.533C256.256,200.09,252.433,196.267,247.723,196.267z"/>
			<path d="M221.867,238.933h256c4.71,0,8.533-3.823,8.533-8.533v-51.2c0-4.71-3.823-8.533-8.533-8.533h-19.226l-0.725-2.432
				c-1.34-4.514-6.084-7.108-10.607-5.743c-3.712,1.092-5.982,4.497-5.982,8.175H257.971c-0.008-3.823-2.432-7.313-6.306-8.277
				c-4.557-1.135-9.199,1.638-10.342,6.204l-0.521,2.074h-18.935c-4.719,0-8.533,3.823-8.533,8.533v51.2
				C213.333,235.11,217.148,238.933,221.867,238.933z M230.4,187.733h221.841h0.026h0.026h17.041v34.133H230.4V187.733z"/>
			<path d="M238.933,68.267H460.8c4.71,0,8.533-3.823,8.533-8.533v-51.2c0-4.71-3.823-8.533-8.533-8.533H238.933
				c-4.719,0-8.533,3.823-8.533,8.533v51.2C230.4,64.444,234.214,68.267,238.933,68.267z M247.467,17.067h204.8V51.2h-204.8V17.067z
				"/>
			<path d="M443.989,110.933h-0.094c-4.71,0-8.482,3.823-8.482,8.533S439.27,128,443.989,128c4.71,0,8.533-3.823,8.533-8.533
				S448.7,110.933,443.989,110.933z"/>
			<path d="M264.789,25.6h-0.094c-4.702,0-8.482,3.823-8.482,8.533c0,4.71,3.857,8.533,8.576,8.533c4.71,0,8.533-3.823,8.533-8.533
				C273.323,29.423,269.5,25.6,264.789,25.6z"/>
			<path d="M230.4,153.6h238.933c4.71,0,8.533-3.823,8.533-8.533v-51.2c0-4.71-3.823-8.533-8.533-8.533h-19.226l-0.725-2.432
				c-1.34-4.506-6.076-7.1-10.607-5.743c-3.712,1.092-5.982,4.497-5.982,8.175H266.505c-0.008-3.823-2.432-7.313-6.306-8.277
				c-4.54-1.135-9.199,1.638-10.342,6.204l-0.521,2.074H230.4c-4.719,0-8.533,3.823-8.533,8.533v51.2
				C221.867,149.777,225.681,153.6,230.4,153.6z M238.933,102.4h204.774h0.026h0.026H460.8v34.133H238.933V102.4z"/>
			<path d="M256.256,110.933h-0.085c-4.719,0-8.491,3.823-8.491,8.533s3.857,8.533,8.576,8.533c4.71,0,8.533-3.823,8.533-8.533
				S260.966,110.933,256.256,110.933z"/>
			<path d="M25.6,0C11.477,0,0,11.486,0,25.6v17.067c0,11.11,7.151,20.489,17.067,24.021v436.779c0,4.71,3.814,8.533,8.533,8.533
				c4.71,0,8.533-3.823,8.533-8.533V66.697C44.041,63.155,51.2,53.777,51.2,42.667V25.6C51.2,11.486,39.714,0,25.6,0z
				 M34.133,42.667c0,4.702-3.831,8.533-8.533,8.533c-4.71,0-8.533-3.831-8.533-8.533V25.6c0-4.702,3.823-8.533,8.533-8.533
				c4.702,0,8.533,3.831,8.533,8.533V42.667z"/>
			<path d="M93.867,0c-14.123,0-25.6,11.486-25.6,25.6v17.067c0,11.11,7.151,20.489,17.067,24.021v436.779
				c0,4.71,3.814,8.533,8.533,8.533c4.71,0,8.533-3.823,8.533-8.533V66.697c9.907-3.541,17.067-12.919,17.067-24.03V25.6
				C119.467,11.486,107.981,0,93.867,0z M102.4,42.667c0,4.702-3.831,8.533-8.533,8.533c-4.71,0-8.533-3.831-8.533-8.533V25.6
				c0-4.702,3.823-8.533,8.533-8.533c4.702,0,8.533,3.831,8.533,8.533V42.667z"/>
			<path d="M222.123,452.267h-0.085c-4.71,0-8.491,3.823-8.491,8.533c0,4.71,3.857,8.533,8.576,8.533
				c4.71,0,8.533-3.823,8.533-8.533C230.656,456.09,226.833,452.267,222.123,452.267z"/>
			<path d="M503.467,426.667h-19.226l-0.725-2.432c-1.34-4.514-6.076-7.091-10.607-5.743c-3.712,1.092-5.982,4.497-5.982,8.175
				H232.371c-0.009-3.823-2.432-7.313-6.306-8.277c-4.565-1.143-9.199,1.638-10.342,6.204l-0.521,2.074h-18.935
				c-4.719,0-8.533,3.823-8.533,8.533v51.2c0,4.71,3.814,8.533,8.533,8.533h10.47l-1.664,6.383
				c-1.186,4.557,1.545,9.216,6.101,10.411c0.725,0.188,1.451,0.273,2.159,0.273c3.797,0,7.253-2.543,8.26-6.383l2.782-10.684
				h251.093l2.654,10.607c0.964,3.874,4.446,6.46,8.269,6.46c0.683,0,1.382-0.077,2.074-0.256c4.574-1.143,7.356-5.777,6.204-10.351
				l-1.613-6.46h10.411c4.71,0,8.533-3.823,8.533-8.533v-51.2C512,430.49,508.177,426.667,503.467,426.667z M494.933,477.867H204.8
				v-34.133h273.041h0.026h0.026h17.041V477.867z"/>
			<path d="M469.547,460.8c0,4.71,3.857,8.533,8.576,8.533c4.71,0,8.533-3.823,8.533-8.533c0-4.71-3.823-8.533-8.533-8.533h-0.094
				C473.318,452.267,469.547,456.09,469.547,460.8z"/>
			<path d="M213.333,324.267H486.4c4.71,0,8.533-3.823,8.533-8.533v-51.2c0-4.71-3.823-8.533-8.533-8.533h-19.226l-0.725-2.432
				c-1.34-4.506-6.076-7.091-10.607-5.743c-3.712,1.092-5.982,4.497-5.982,8.175H249.438c-0.009-3.823-2.432-7.313-6.306-8.277
				c-4.548-1.135-9.199,1.638-10.342,6.204L232.269,256h-18.935c-4.719,0-8.533,3.823-8.533,8.533v51.2
				C204.8,320.444,208.614,324.267,213.333,324.267z M221.867,273.067h238.908h0.026h0.026h17.041V307.2h-256V273.067z"/>
			<path d="M461.056,281.6h-0.094c-4.71,0-8.482,3.823-8.482,8.533c0,4.71,3.857,8.533,8.576,8.533c4.71,0,8.533-3.823,8.533-8.533
				C469.589,285.423,465.766,281.6,461.056,281.6z"/>
			<path d="M239.189,281.6h-0.085c-4.71,0-8.491,3.823-8.491,8.533c0,4.71,3.857,8.533,8.576,8.533c4.71,0,8.533-3.823,8.533-8.533
				C247.723,285.423,243.9,281.6,239.189,281.6z"/>
			<path d="M204.8,409.6h290.133c4.71,0,8.533-3.823,8.533-8.533v-51.2c0-4.71-3.823-8.533-8.533-8.533h-19.226l-0.725-2.432
				c-1.331-4.506-6.084-7.1-10.607-5.743c-3.712,1.092-5.982,4.497-5.982,8.175H240.905c-0.009-3.823-2.432-7.313-6.306-8.277
				c-4.54-1.143-9.199,1.638-10.342,6.204l-0.521,2.074H204.8c-4.719,0-8.533,3.823-8.533,8.533v51.2
				C196.267,405.777,200.081,409.6,204.8,409.6z M213.333,358.4h255.974h0.026h0.026H486.4v34.133H213.333V358.4z"/>
			<path d="M230.656,366.933h-0.085c-4.71,0-8.491,3.823-8.491,8.533s3.857,8.533,8.576,8.533c4.71,0,8.533-3.823,8.533-8.533
				S235.366,366.933,230.656,366.933z"/>
			<path d="M469.589,366.933h-0.094c-4.71,0-8.482,3.823-8.482,8.533S464.87,384,469.589,384c4.71,0,8.533-3.823,8.533-8.533
				S474.3,366.933,469.589,366.933z"/>
		</g>
	</g>
</g>
<g>
</g>
<g>
</g>
<g>
</g>
<g>
</g>
<g>
</g>
<g>
</g>
<g>
</g>
<g>
</g>
<g>
</g>
<g>
</g>
<g>
</g>
<g>
</g>
<g>
</g>
<g>
</g>
<g>
</g>
</svg>
